<svg class="logo__svg" width="31" height="31" viewBox="0 0 41 41" fill="none" xmlns="http://www.w3.org/2000/svg">
<path d="M27.4751 37.1166C27.3458 31.8166 28.3471 24.8846 28.7018 22.6273C30.3178 21.8113 31.8151 20.758 33.1138 19.4953C31.5964 19.258 30.0791 19.022 28.5618 18.7846C27.6071 15.2473 24.3831 12.6393 20.5418 12.6393C20.3551 12.6393 20.1698 12.6513 19.9858 12.6633C20.0524 12.2726 20.0831 11.8726 20.0964 11.478C20.1164 10.8873 20.1111 10.2833 19.9058 9.72862C19.7004 9.17529 19.2604 8.67529 18.6831 8.55262C18.4418 8.50062 18.1711 8.52196 17.9738 8.66862C17.7284 8.84862 17.6431 9.17129 17.5978 9.47262C17.4938 10.154 17.5124 10.8566 17.6564 11.5326C17.5311 11.0486 17.3284 10.586 17.0591 10.166C16.8471 9.83796 16.5858 9.52862 16.2418 9.34329C15.8978 9.15929 15.4591 9.11796 15.1218 9.31529C14.7644 9.52462 14.5871 9.95796 14.5858 10.3713C14.5858 10.7846 14.7338 11.1833 14.8978 11.562C15.1111 12.0513 15.3524 12.5273 15.6244 12.9846C14.9791 12.438 14.2671 11.8646 13.4218 11.818C12.9404 11.7926 12.3578 12.0793 12.3751 12.5606C12.3818 12.7126 12.4484 12.8566 12.5218 12.9913C13.0018 13.8846 13.7591 14.6193 14.6538 15.094C13.6524 16.1006 12.9018 17.3593 12.5191 18.77C11.3964 20.8353 10.9058 30.298 10.7084 36.006C5.41377 32.7966 1.8671 26.9793 1.8671 20.3486C1.8671 10.2593 10.0764 2.05262 20.1644 2.05262C30.2524 2.05262 38.4618 10.2593 38.4618 20.3486C38.4618 27.8393 33.9351 34.2886 27.4751 37.1166ZM23.8084 19.2193C23.8084 18.674 24.2511 18.2313 24.7964 18.2313C25.3418 18.2313 25.7831 18.674 25.7831 19.2193C25.7831 19.7646 25.3418 20.2073 24.7964 20.2073C24.2511 20.2073 23.8084 19.7646 23.8084 19.2193ZM20.1644 0.195289C9.05243 0.195289 0.00976562 9.23529 0.00976562 20.3486C0.00976562 31.462 9.05243 40.502 20.1644 40.502C31.2778 40.502 40.3178 31.462 40.3178 20.3486C40.3178 9.23529 31.2778 0.195289 20.1644 0.195289Z" fill="#3c7375"/>
</svg>
