<svg width="1387" height="379" viewBox="0 0 1387 379" fill="none" xmlns="http://www.w3.org/2000/svg">
<rect width="1387" height="379" fill="#F5F5F5"/>
<g clip-path="url(#clip0_0_1)">
<path d="M0 465.667H1386.67V-201H0V465.667Z" fill="#87EFFF"/>
<mask id="mask0_0_1" style="mask-type:luminance" maskUnits="userSpaceOnUse" x="0" y="-91" width="511" height="460">
<path d="M0 368.148H510.229V-90.4853H0V368.148Z" fill="white"/>
</mask>
<g mask="url(#mask0_0_1)">
<mask id="mask1_0_1" style="mask-type:luminance" maskUnits="userSpaceOnUse" x="-38" y="-62" width="500" height="364">
<path d="M-37.8312 -61.272H461.384V301.635H-37.8312V-61.272Z" fill="white"/>
</mask>
<g mask="url(#mask1_0_1)">
<g opacity="0.669998">
<path d="M-3.7716 301.635C-26.6623 288.845 -40.5383 261.556 -37.3876 235.525C-34.2356 209.495 -14.2489 186.305 11.0324 179.347C0.481734 139.261 -2.26093 96.4907 8.24573 56.392C18.7524 16.2933 43.3524 -20.88 78.9751 -42.0773C120.012 -66.4973 173.531 -67.3547 216.315 -46.1427C259.099 -24.9307 290.423 17.1147 300.64 63.7627C333.591 33.4107 390.26 42.3573 421.69 74.2827C453.119 106.208 463.071 154.036 461.156 198.795C459.608 235.005 450.156 272.885 424.462 298.447L-3.7716 301.635Z" fill="white"/>
</g>
</g>
</g>
<mask id="mask2_0_1" style="mask-type:luminance" maskUnits="userSpaceOnUse" x="0" y="-201" width="1387" height="667">
<path d="M0 -201H1386.67V465.667H0V-201Z" fill="white"/>
</mask>
<g mask="url(#mask2_0_1)">
<mask id="mask3_0_1" style="mask-type:luminance" maskUnits="userSpaceOnUse" x="253" y="140" width="753" height="268">
<path d="M253.895 140.265H1005.33V407.959H253.895V140.265Z" fill="white"/>
</mask>
<g mask="url(#mask3_0_1)">
<g opacity="0.0800018">
<path d="M253.894 407.959C272.14 383.476 297.698 327.331 315.942 302.847C345.938 262.595 376.309 221.939 413.93 190.544C451.554 159.151 497.7 137.418 544.69 140.568C609.865 144.939 664.052 194.482 718.597 234.296C733.909 245.472 750.089 256.24 768.158 259.643C783.61 262.552 799.429 259.879 815.1 260.184C849.3 260.851 882.273 275.82 910.876 296.628C939.478 317.435 980.725 377.942 1005.33 404.303L253.894 407.959Z" fill="#00556E"/>
</g>
</g>
</g>
<mask id="mask4_0_1" style="mask-type:luminance" maskUnits="userSpaceOnUse" x="598" y="95" width="112" height="255">
<path d="M639.324 114.393C637.973 123.607 638.46 133.693 634.491 141.584C632.387 145.768 629.225 148.88 626.617 152.572C612.749 172.201 616.96 202.639 622.013 228.251C617.101 232.165 613.299 237.752 610.664 244.192C609.363 243.188 608.057 242.185 606.756 241.18C606.836 244.151 607.52 247.097 608.719 249.815C608.171 251.724 607.715 253.68 607.352 255.665C604.796 253.961 601.839 252.919 598.925 251.907C600.149 255.02 601.724 257.993 603.612 260.755C604.385 261.888 605.321 263.033 606.403 263.884C605.739 276.801 608.907 289.997 616.277 299.011C606.839 306.156 601.735 321.504 604.269 335.113C605.28 340.536 607.485 345.496 610.451 349.581H705.767C707.935 345.187 709.355 340.135 709.771 335.012C710.896 321.152 706.035 307.44 699.22 296.543C698.184 294.885 697.067 293.188 696.705 291.12C696.137 287.845 697.581 284.629 698.752 281.624C705.349 264.661 703.628 243.089 694.839 227.909C696.091 227.299 697.261 226.591 698.164 225.536C699.628 223.825 700.116 221.451 699.968 219.205C699.821 216.961 699.1 214.799 698.385 212.665C697.073 215.139 695.007 217.108 693.272 219.305C692.493 220.292 691.769 221.373 691.229 222.516C689.623 220.333 688.041 218.055 687.595 215.167C686.913 210.769 689.071 206.587 690.709 202.619C698.563 183.58 694.56 157.868 681.597 144.091C680.027 142.42 678.336 140.899 676.697 139.319C677.976 137.636 678.415 135.409 678.276 133.288C678.128 131.043 677.408 128.881 676.693 126.747C675.381 129.22 673.315 131.191 671.58 133.388C671.579 133.389 671.577 133.392 671.575 133.392C671.373 133.084 671.177 132.769 670.987 132.444C667.425 126.337 666.727 118.369 664.901 111.129C663.073 103.888 659.076 96.3467 653.124 95.76C652.876 95.7347 652.628 95.7227 652.385 95.7227C645.447 95.7213 640.628 105.491 639.324 114.393Z" fill="white"/>
</mask>
<g mask="url(#mask4_0_1)">
<path d="M699.22 296.542C698.184 294.885 697.067 293.188 696.705 291.12C696.136 287.846 697.581 284.628 698.751 281.625C705.349 264.662 703.629 243.089 694.839 227.909C696.089 227.298 697.261 226.59 698.164 225.536C699.628 223.826 700.116 221.452 699.969 219.206C699.821 216.961 699.1 214.798 698.385 212.666C697.075 215.138 695.007 217.109 693.273 219.305C692.493 220.292 691.771 221.373 691.231 222.514C689.624 220.334 688.041 218.056 687.595 215.168C686.913 210.769 689.072 206.586 690.709 202.618C698.563 183.58 694.56 157.868 681.599 144.09C680.027 142.42 678.336 140.9 676.697 139.318C677.976 137.636 678.416 135.408 678.276 133.289C678.129 131.044 677.408 128.881 676.693 126.748C675.383 129.22 673.315 131.19 671.58 133.388L671.576 133.393C671.373 133.084 671.176 132.768 670.987 132.444C667.425 126.338 666.727 118.37 664.9 111.129C663.073 103.888 659.076 96.3463 653.124 95.7596C645.789 95.0356 640.675 105.178 639.324 114.393C637.975 123.606 638.46 133.693 634.491 141.584C632.387 145.769 629.225 148.88 626.617 152.572C612.751 172.202 616.96 202.638 622.013 228.25C617.101 232.166 613.299 237.752 610.665 244.192C609.361 243.188 608.059 242.184 606.756 241.181C606.836 244.15 607.521 247.097 608.72 249.814C608.171 251.724 607.715 253.68 607.353 255.666C604.797 253.961 601.839 252.918 598.924 251.906C600.149 255.02 601.724 257.994 603.612 260.754C604.387 261.888 605.321 263.033 606.403 263.885C605.739 276.801 608.907 289.998 616.277 299.012C606.839 306.156 601.735 321.504 604.269 335.113C605.28 340.537 607.487 345.497 610.451 349.581H705.767C707.935 345.186 709.356 340.134 709.771 335.013C710.896 321.152 706.035 307.44 699.22 296.542Z" fill="#00857F"/>
<mask id="mask5_0_1" style="mask-type:luminance" maskUnits="userSpaceOnUse" x="618" y="83" width="101" height="274">
<path d="M618.523 83.4773H718.688V356.271H618.523V83.4773Z" fill="white"/>
</mask>
<g mask="url(#mask5_0_1)">
<g opacity="0.490005">
<path d="M623.555 350.817C623.555 350.817 612.648 335.669 622.948 314.46C622.948 314.46 629.008 312.642 630.22 308.401H624.161C624.161 308.401 630.827 301.736 630.827 295.677L624.767 297.494C624.767 297.494 614.465 274.468 633.856 244.172C633.856 244.172 639.309 237.506 639.309 235.081C639.309 232.658 633.249 238.112 633.249 238.112C633.249 238.112 616.283 190.241 636.279 160.55C636.279 160.55 642.339 152.673 642.945 150.854C643.551 149.037 636.885 154.49 636.885 154.49C636.885 154.49 646.581 115.71 645.975 99.9556C645.368 84.2009 644.157 82.9889 656.276 83.5956C668.394 84.2009 705.964 124.8 706.569 127.829C707.176 130.858 715.659 179.334 715.052 187.818C714.447 196.301 715.052 269.014 715.659 272.65C716.264 276.286 718.689 334.456 718.689 334.456L715.659 356.272L623.555 350.817Z" fill="#00556E"/>
</g>
</g>
<path d="M646.513 195.48C646.513 195.48 642.41 189.097 645.146 184.082C645.146 184.082 649.705 188.641 646.513 195.48Z" fill="#00556E"/>
<path d="M644.234 227.848C644.234 227.848 640.131 221.466 642.866 216.451C642.866 216.451 647.426 221.01 644.234 227.848Z" fill="#00556E"/>
<path d="M656.998 173.141C656.998 173.141 652.896 166.759 655.63 161.744C655.63 161.744 660.19 166.303 656.998 173.141Z" fill="#00857F"/>
<path d="M646.969 329.511C646.969 329.511 642.865 323.128 645.601 318.114C645.601 318.114 650.16 322.672 646.969 329.511Z" fill="#00857F"/>
<path d="M660.19 159.464C660.19 159.464 656.087 153.083 658.822 148.067C658.822 148.067 663.382 152.625 660.19 159.464Z" fill="#00857F"/>
<path d="M653.807 205.965C653.807 205.965 649.705 199.583 652.441 194.568C652.441 194.568 656.999 199.127 653.807 205.965Z" fill="#00857F"/>
<path d="M635.572 282.555C635.572 282.555 631.468 276.173 634.204 271.157C634.204 271.157 638.763 275.717 635.572 282.555Z" fill="#00857F"/>
<path d="M642.866 264.775C642.866 264.775 638.763 258.393 641.499 253.378C641.499 253.378 646.058 257.937 642.866 264.775Z" fill="#00857F"/>
<path d="M646.908 209.821C646.908 209.821 640.604 205.597 641.12 199.907C641.12 199.907 647.116 202.277 646.908 209.821Z" fill="#00556E"/>
<path d="M658.305 273.645C658.305 273.645 652.001 269.421 652.517 263.732C652.517 263.732 658.513 266.101 658.305 273.645Z" fill="#00556E"/>
<path d="M651.467 256.321C651.467 256.321 645.164 252.097 645.679 246.407C645.679 246.407 651.675 248.778 651.467 256.321Z" fill="#00556E"/>
<path d="M643.261 307.837C643.261 307.837 636.957 303.613 637.473 297.923C637.473 297.923 643.469 300.294 643.261 307.837Z" fill="#00556E"/>
<path d="M654.202 286.409C654.202 286.409 647.898 282.187 648.414 276.496C648.414 276.496 654.41 278.867 654.202 286.409Z" fill="#00556E"/>
</g>
<mask id="mask6_0_1" style="mask-type:luminance" maskUnits="userSpaceOnUse" x="32" y="-86" width="174" height="398">
<path d="M95.4146 -56.544C93.304 -42.128 94.0627 -26.348 87.852 -14C84.5587 -7.45468 79.6147 -2.58799 75.5333 3.19201C53.8373 33.9053 60.4227 81.524 68.3307 121.597C60.6453 127.723 54.6947 136.463 50.5733 146.537C48.5347 144.967 46.4973 143.396 44.4573 141.827C44.5853 146.473 45.6547 151.083 47.5307 155.335C46.6747 158.321 45.9573 161.38 45.392 164.492C41.3933 161.823 36.764 160.191 32.2053 158.608C34.1213 163.477 36.5867 168.133 39.5413 172.453C40.752 174.223 42.2133 176.017 43.9067 177.349C42.8667 197.557 47.824 218.207 59.3573 232.308C44.588 243.485 36.6013 267.497 40.568 288.792C42.1507 297.277 45.6013 305.039 50.2387 311.431H199.369C202.763 304.552 204.984 296.651 205.633 288.633C207.393 266.949 199.789 245.495 189.125 228.444C187.505 225.851 185.756 223.197 185.193 219.961C184.303 214.839 186.564 209.804 188.393 205.105C198.715 178.565 196.024 144.812 182.272 121.064C184.229 120.107 186.064 119 187.475 117.349C189.763 114.675 190.529 110.959 190.299 107.447C190.068 103.933 188.94 100.549 187.821 97.2133C185.769 101.081 182.536 104.164 179.821 107.601C178.603 109.145 177.472 110.835 176.625 112.623C174.113 109.209 171.636 105.644 170.937 101.127C169.872 94.244 173.249 87.7027 175.809 81.4933C188.097 51.7053 181.836 11.476 161.556 -10.08C159.097 -12.6947 156.451 -15.0707 153.887 -17.5453C155.889 -20.1773 156.576 -23.6627 156.359 -26.98C156.128 -30.492 155 -33.876 153.881 -37.2133C151.829 -33.3453 148.596 -30.2627 145.881 -26.8253C145.879 -26.8213 145.879 -26.82 145.875 -26.816C145.559 -27.3 145.251 -27.7933 144.953 -28.3027C139.383 -37.8547 138.289 -50.32 135.431 -61.6493C132.571 -72.98 126.317 -84.78 117.007 -85.6987C116.617 -85.7373 116.232 -85.756 115.852 -85.756C104.993 -85.7573 97.456 -70.472 95.4146 -56.544Z" fill="white"/>
</mask>
<g mask="url(#mask6_0_1)">
<path d="M189.126 228.445C187.505 225.851 185.757 223.197 185.193 219.961C184.302 214.839 186.564 209.805 188.393 205.105C198.715 178.566 196.024 144.811 182.272 121.063C184.229 120.107 186.064 118.999 187.474 117.35C189.764 114.675 190.529 110.959 190.298 107.446C190.068 103.934 188.94 100.55 187.821 97.2126C185.769 101.082 182.535 104.165 179.821 107.602C178.602 109.145 177.472 110.835 176.626 112.623C174.113 109.21 171.637 105.645 170.938 101.127C169.873 94.2446 173.249 87.7019 175.81 81.4925C188.098 51.7045 181.836 11.4752 161.556 -10.0808C159.097 -12.6941 156.452 -15.0714 153.888 -17.5461C155.889 -20.1768 156.576 -23.6634 156.358 -26.9794C156.128 -30.4928 155.001 -33.8768 153.882 -37.2141C151.83 -33.3448 148.596 -30.2621 145.881 -26.8248C145.88 -26.8221 145.877 -26.8195 145.876 -26.8155C145.56 -27.3008 145.25 -27.7941 144.954 -28.3021C139.382 -37.8541 138.29 -50.3208 135.432 -61.6501C132.572 -72.9794 126.318 -84.7795 117.006 -85.6981C105.53 -86.8301 97.5275 -70.9607 95.4142 -56.5434C93.3035 -42.1274 94.0622 -26.3474 87.8515 -13.9994C84.5595 -7.4541 79.6155 -2.58744 75.5328 3.19256C53.8382 33.9046 60.4222 81.5232 68.3302 121.598C60.6448 127.723 54.6942 136.463 50.5742 146.537C48.5355 144.967 46.4968 143.397 44.4582 141.826C44.5848 146.473 45.6542 151.083 47.5302 155.335C46.6742 158.321 45.9582 161.381 45.3928 164.491C41.3928 161.823 36.7648 160.191 32.2062 158.609C34.1208 163.478 36.5862 168.133 39.5408 172.453C40.7515 174.223 42.2142 176.018 43.9062 177.35C42.8662 197.558 47.8235 218.206 59.3568 232.307C44.5888 243.485 36.6008 267.498 40.5688 288.793C42.1502 297.278 45.6008 305.038 50.2382 311.43H199.37C202.762 304.553 204.984 296.65 205.633 288.634C207.394 266.949 199.789 245.494 189.126 228.445Z" fill="#00857F"/>
<mask id="mask7_0_1" style="mask-type:luminance" maskUnits="userSpaceOnUse" x="62" y="-105" width="158" height="427">
<path d="M62.8684 -104.913H219.587V321.895H62.8684V-104.913Z" fill="white"/>
</mask>
<g mask="url(#mask7_0_1)">
<g opacity="0.490005">
<path d="M70.7413 313.363C70.7413 313.363 53.6773 289.663 69.7933 256.48C69.7933 256.48 79.2733 253.635 81.1706 247H71.6893C71.6893 247 82.1186 236.571 82.1186 227.089L72.6373 229.935C72.6373 229.935 56.52 193.908 86.8586 146.504C86.8586 146.504 95.3906 136.076 95.3906 132.284C95.3906 128.492 85.9106 137.024 85.9106 137.024C85.9106 137.024 59.3653 62.1279 90.6506 15.6732C90.6506 15.6732 100.131 3.3492 101.079 0.503869C102.027 -2.3388 91.5986 6.1932 91.5986 6.1932C91.5986 6.1932 106.768 -54.4828 105.82 -79.1321C104.872 -103.781 102.976 -105.677 121.936 -104.729C140.897 -103.781 199.677 -40.2614 200.625 -35.5214C201.573 -30.7814 214.847 45.0625 213.899 58.3359C212.949 71.6092 213.899 185.376 214.847 191.063C215.795 196.752 219.587 287.765 219.587 287.765L214.847 321.895L70.7413 313.363Z" fill="#00556E"/>
</g>
</g>
<path d="M106.663 70.3235C106.663 70.3235 100.243 60.3382 104.523 52.4915C104.523 52.4915 111.656 59.6248 106.663 70.3235Z" fill="#00556E"/>
<path d="M103.096 120.967C103.096 120.967 96.6764 110.98 100.956 103.135C100.956 103.135 108.09 110.268 103.096 120.967Z" fill="#00556E"/>
<path d="M123.068 35.3729C123.068 35.3729 116.649 25.3876 120.929 17.5409C120.929 17.5409 128.061 24.6743 123.068 35.3729Z" fill="#00857F"/>
<path d="M107.375 280.028C107.375 280.028 100.957 270.043 105.235 262.196C105.235 262.196 112.369 269.329 107.375 280.028Z" fill="#00857F"/>
<path d="M128.06 13.9746C128.06 13.9746 121.642 3.98923 125.922 -3.85743C125.922 -3.85743 133.054 3.2759 128.06 13.9746Z" fill="#00857F"/>
<path d="M118.075 86.7291C118.075 86.7291 111.656 76.7438 115.935 68.8971C115.935 68.8971 123.068 76.0304 118.075 86.7291Z" fill="#00857F"/>
<path d="M89.5435 206.56C89.5435 206.56 83.1248 196.574 87.4048 188.728C87.4048 188.728 94.5368 195.862 89.5435 206.56Z" fill="#00857F"/>
<path d="M100.956 178.743C100.956 178.743 94.5363 168.756 98.8163 160.911C98.8163 160.911 105.95 168.044 100.956 178.743Z" fill="#00857F"/>
<path d="M107.28 92.761C107.28 92.761 97.4177 86.153 98.2244 77.2516C98.2244 77.2516 107.606 80.9583 107.28 92.761Z" fill="#00556E"/>
<path d="M125.112 192.62C125.112 192.62 115.251 186.011 116.056 177.111C116.056 177.111 125.437 180.816 125.112 192.62Z" fill="#00556E"/>
<path d="M114.413 165.515C114.413 165.515 104.551 158.907 105.356 150.006C105.356 150.006 114.737 153.712 114.413 165.515Z" fill="#00556E"/>
<path d="M101.574 246.115C101.574 246.115 91.7129 239.507 92.5182 230.606C92.5182 230.606 101.9 234.312 101.574 246.115Z" fill="#00556E"/>
<path d="M118.693 212.592C118.693 212.592 108.831 205.984 109.637 197.082C109.637 197.082 119.018 200.789 118.693 212.592Z" fill="#00556E"/>
</g>
<path d="M0 243.751H397.857V230.976H0V243.751Z" fill="#7C202E"/>
<path d="M0 276.336H397.857V263.563H0V276.336Z" fill="#7C202E"/>
<path d="M384.824 312.44H397.857V230.976H384.824V312.44Z" fill="#7C202E"/>
<path d="M326.171 312.44H339.205V230.976H326.171V312.44Z" fill="#7C202E"/>
<path d="M267.517 312.44H280.552V230.976H267.517V312.44Z" fill="#7C202E"/>
<path d="M208.863 312.44H221.897V230.976H208.863V312.44Z" fill="#7C202E"/>
<path d="M150.211 312.44H163.244V230.976H150.211V312.44Z" fill="#7C202E"/>
<path d="M91.556 312.44H104.589V230.976H91.556V312.44Z" fill="#7C202E"/>
<path d="M32.9026 312.44H45.9359V230.976H32.9026V312.44Z" fill="#7C202E"/>
<path d="M647.404 331.557H1045.26V318.784H647.404V331.557Z" fill="#7C202E"/>
<path d="M647.404 364.143H1045.26V351.371H647.404V364.143Z" fill="#7C202E"/>
<path d="M1032.23 400.248H1045.26V318.784H1032.23V400.248Z" fill="#7C202E"/>
<path d="M973.576 400.248H986.609V318.784H973.576V400.248Z" fill="#7C202E"/>
<path d="M914.921 400.248H927.955V318.784H914.921V400.248Z" fill="#7C202E"/>
<path d="M856.268 400.248H869.301V318.784H856.268V400.248Z" fill="#7C202E"/>
<path d="M797.615 400.248H810.648V318.784H797.615V400.248Z" fill="#7C202E"/>
<path d="M738.961 400.248H751.995V318.784H738.961V400.248Z" fill="#7C202E"/>
<path d="M680.307 400.248H693.34V318.784H680.307V400.248Z" fill="#7C202E"/>
<mask id="mask8_0_1" style="mask-type:luminance" maskUnits="userSpaceOnUse" x="0" y="-201" width="1387" height="667">
<path d="M0 -201H1386.67V465.667H0V-201Z" fill="white"/>
</mask>
<g mask="url(#mask8_0_1)">
<path d="M1379.32 452.831C1359.5 449.011 1339.78 444.681 1320.02 440.59C1311.17 438.759 1302.31 436.971 1293.41 435.375C1289.3 434.637 1285.18 433.954 1281.05 433.31C1280.89 433.286 1280.69 433.245 1280.46 433.195C1278.89 433.026 1277.32 432.807 1275.75 432.645C1220.03 426.866 1164.47 417.819 1109.13 409.242C1051.95 400.379 994.868 390.915 937.801 381.367C822.965 362.153 708.164 342.582 592.816 326.637C481.424 311.238 364.768 299.026 250.488 294.839C193.029 292.735 135.487 292.613 78.0361 295.05C51.9921 296.154 25.9735 297.821 0.00012207 300.035V465.667H1386.67V454.246C1384.21 453.774 1381.76 453.301 1379.32 452.831Z" fill="#00A721"/>
<mask id="mask9_0_1" style="mask-type:luminance" maskUnits="userSpaceOnUse" x="470" y="-27" width="141" height="67">
<path d="M470.717 -26.52H610.244V39.012H470.717V-26.52Z" fill="white"/>
</mask>
<g mask="url(#mask9_0_1)">
<g opacity="0.669998">
<path d="M610.244 39.0123C609.188 32.6389 604.433 26.9029 598.235 24.9563C591.096 22.7149 582.648 25.6856 578.484 31.9043C579.244 23.3096 575.579 13.7949 567.811 10.0403C560.043 6.28294 548.744 11.0723 548.003 19.6683C544.184 6.70694 539.936 -6.76373 530.468 -16.4051C521 -26.0477 504.651 -30.3544 493.803 -22.2971C481.1 -12.8637 482.688 6.31094 485.829 21.8189C479.817 19.8763 472.58 23.8776 471.028 30.0029C470.249 33.0749 470.984 36.3563 472.691 39.0123L610.244 39.0123Z" fill="white"/>
</g>
</g>
<path d="M1379.32 446.711C1371.21 445.147 1363.11 443.487 1355.02 441.805C1355.33 441.007 1355.56 440.183 1355.67 439.331C1356.1 436.015 1354.58 432.31 1351.35 430.498C1348.11 428.686 1343.26 429.429 1341.63 432.398C1342.18 428.473 1341.43 424.222 1338.73 420.974C1336.04 417.727 1331.17 415.753 1326.94 416.842C1323.72 417.67 1321.3 420.077 1319.91 422.789C1318.53 425.498 1318.04 428.517 1317.59 431.495C1314.43 428.486 1308.54 428.298 1305.38 431.105C1305.26 431.215 1305.15 431.337 1305.03 431.454C1301.17 430.697 1297.29 429.953 1293.41 429.255C1289.3 428.517 1285.18 427.835 1281.05 427.19C1280.89 427.166 1280.69 427.125 1280.46 427.075C1278.89 426.907 1277.32 426.689 1275.75 426.525C1272.67 426.206 1269.58 425.871 1266.5 425.533C1267.06 421.149 1265.05 416.259 1260.78 413.866C1256.49 411.467 1250.07 412.45 1247.91 416.379C1248.65 411.183 1247.65 405.558 1244.07 401.258C1240.51 396.959 1234.07 394.346 1228.46 395.787C1224.2 396.882 1221 400.07 1219.17 403.658C1217.33 407.246 1216.69 411.243 1216.08 415.183C1211.9 411.202 1204.11 410.954 1199.92 414.669C1199.24 415.277 1198.69 415.977 1198.24 416.731C1186.45 415.031 1174.67 413.266 1162.9 411.465C1163.46 407.081 1161.45 402.19 1157.18 399.797C1152.9 397.399 1146.47 398.382 1144.31 402.31C1145.05 397.117 1144.05 391.489 1140.48 387.189C1136.91 382.89 1130.47 380.277 1124.86 381.718C1120.6 382.813 1117.4 386.001 1115.57 389.589C1113.74 393.178 1113.09 397.175 1112.48 401.117C1108.3 397.133 1100.51 396.885 1096.33 400.599C1096.17 400.739 1096.03 400.89 1095.89 401.037C1082.71 398.971 1069.52 396.886 1056.35 394.767C1057.19 393.186 1057.79 391.511 1058.02 389.747C1058.6 385.357 1056.58 380.453 1052.3 378.054C1048.02 375.657 1041.6 376.638 1039.44 380.569C1040.17 375.373 1039.17 369.746 1035.6 365.447C1032.03 361.146 1025.59 358.534 1019.99 359.975C1015.72 361.071 1012.52 364.258 1010.69 367.847C1008.86 371.435 1008.21 375.433 1007.61 379.373C1003.43 375.391 995.631 375.142 991.452 378.857C989.977 380.167 989.065 381.882 988.681 383.715C977.328 381.837 965.976 379.949 954.625 378.053C955.84 376.135 956.692 374.054 956.983 371.843C957.559 367.453 955.544 362.547 951.263 360.149C946.981 357.75 940.56 358.734 938.4 362.663C939.133 357.467 938.133 351.841 934.564 347.541C930.993 343.241 924.553 340.627 918.947 342.07C914.684 343.165 911.484 346.351 909.652 349.941C907.821 353.529 907.175 357.526 906.569 361.467C902.387 357.485 894.592 357.237 890.412 360.951C888.671 362.499 887.708 364.611 887.485 366.819C876.443 364.969 865.4 363.123 854.356 361.281C856.501 358.742 858.084 355.835 858.501 352.658C859.077 348.267 857.064 343.362 852.781 340.963C848.5 338.566 842.077 339.549 839.917 343.478C840.652 338.283 839.652 332.655 836.081 328.355C832.512 324.057 826.071 321.443 820.464 322.885C816.204 323.981 813.003 327.167 811.172 330.755C809.34 334.345 808.692 338.343 808.087 342.283C803.904 338.299 796.112 338.051 791.931 341.766C789.439 343.981 788.531 347.347 789.135 350.499C780.508 349.089 771.877 347.687 763.245 346.294C765.548 343.674 767.257 340.638 767.693 337.31C768.271 332.919 766.256 328.015 761.973 325.617C757.692 323.218 751.271 324.201 749.111 328.13C749.845 322.935 748.845 317.307 745.275 313.009C741.704 308.709 735.264 306.095 729.657 307.537C725.397 308.631 722.195 311.819 720.364 315.407C718.532 318.997 717.885 322.994 717.28 326.935C713.097 322.953 705.303 322.703 701.124 326.418C698.391 328.849 697.561 332.659 698.547 336.059C688.419 334.493 678.289 332.951 668.156 331.425C670.677 328.697 672.585 325.498 673.049 321.962C673.625 317.573 671.612 312.667 667.329 310.269C663.048 307.87 656.625 308.853 654.467 312.783C655.2 307.587 654.2 301.961 650.629 297.661C647.06 293.361 640.62 290.747 635.013 292.189C630.752 293.285 627.551 296.471 625.719 300.061C623.888 303.649 623.24 307.646 622.636 311.587C618.453 307.605 610.659 307.355 606.479 311.071C603.353 313.849 602.703 318.437 604.428 322.145C600.557 321.601 596.688 321.051 592.816 320.517C481.424 305.118 364.768 292.906 250.488 288.719C194.843 286.682 139.119 286.523 83.4748 288.73C84.5348 285.409 80.6241 281.385 77.1334 282.922C79.7414 279.098 81.5175 274.658 81.0268 270.257C80.5375 265.855 77.4081 261.574 72.6774 260.271C67.9454 258.966 61.9455 261.458 60.7881 265.79C60.2588 260.57 57.9414 255.345 53.4454 252.023C48.9508 248.703 42.0721 247.707 36.9734 250.449C33.0974 252.53 30.7521 256.391 29.8321 260.314C28.9134 264.237 29.2401 268.273 29.5961 272.243C24.5814 269.377 16.9548 271.001 13.7854 275.607C10.6148 280.215 12.5148 286.913 17.7268 289.494C13.5148 288.519 8.40416 289.489 5.90816 292.729C5.7095 292.986 5.54285 293.238 5.39351 293.485C3.59618 293.631 1.79612 293.762 0.00012207 293.915V327.003C25.9735 324.789 51.9921 323.123 78.0361 322.017C135.487 319.579 193.029 319.702 250.488 321.807C364.768 325.994 481.424 338.205 592.816 353.605C708.164 369.551 822.965 389.122 937.801 408.335C994.868 417.883 1051.95 427.347 1109.13 436.21C1164.27 444.757 1219.62 453.765 1275.13 459.547H1386.67V448.126C1384.21 447.654 1381.76 447.182 1379.32 446.711Z" fill="#84D955"/>
<path d="M100.23 336.297C104.096 335.943 108.252 334.209 109.495 330.929C110.739 327.648 106.971 323.424 103.404 324.825C106.166 321.109 108.119 316.745 107.806 312.327C107.492 307.911 104.538 303.507 99.8631 302.013C95.1884 300.52 89.0924 302.767 87.7618 307.048C87.4431 301.812 85.3378 296.497 80.9791 292.999C76.6218 289.5 69.7884 288.228 64.5844 290.763C60.6284 292.687 58.1284 296.449 57.0524 300.332C55.9751 304.215 56.1404 308.261 56.3364 312.243C51.4404 309.177 43.7551 310.492 40.4018 314.968C37.0484 319.444 38.6791 326.215 43.7818 329.001C39.6138 327.86 34.4684 328.621 31.8418 331.759C29.2178 334.893 30.5298 337.332 34.8058 338.115L100.23 336.297Z" fill="#00A721"/>
<path d="M359.583 340.672C363.449 340.319 367.604 338.586 368.848 335.304C370.092 332.024 366.324 327.8 362.757 329.2C365.519 325.484 367.472 321.12 367.159 316.703C366.845 312.286 363.891 307.883 359.216 306.39C354.541 304.896 348.445 307.143 347.115 311.424C346.796 306.188 344.691 300.874 340.332 297.375C335.975 293.876 329.141 292.604 323.936 295.138C319.981 297.063 317.481 300.826 316.405 304.708C315.328 308.59 315.493 312.638 315.688 316.619C310.793 313.552 303.108 314.867 299.755 319.344C296.401 323.819 298.032 330.59 303.135 333.378C298.967 332.236 293.821 332.998 291.195 336.134C288.571 339.27 289.883 341.707 294.159 342.49L359.583 340.672Z" fill="#00A721"/>
<path d="M625.445 379.601C629.28 380.213 633.733 379.558 635.749 376.686C637.765 373.814 635.156 368.791 631.355 369.269C634.948 366.35 637.919 362.602 638.705 358.243C639.493 353.886 637.719 348.89 633.557 346.289C629.396 343.686 622.935 344.357 620.588 348.179C621.571 343.025 620.844 337.355 617.485 332.89C614.125 328.422 607.82 325.502 602.149 326.671C597.841 327.561 594.489 330.589 592.488 334.085C590.485 337.581 589.645 341.543 588.852 345.45C584.865 341.27 577.093 340.646 572.739 344.155C568.384 347.665 568.292 354.627 572.547 358.589C568.791 356.454 563.616 355.921 560.297 358.311C556.979 360.702 557.648 363.389 561.599 365.202L625.445 379.601Z" fill="#00A721"/>
<path d="M441.272 355.3C445.107 355.912 449.561 355.257 451.577 352.385C453.592 349.513 450.984 344.491 447.183 344.968C450.775 342.049 453.745 338.301 454.533 333.943C455.321 329.587 453.545 324.589 449.384 321.988C445.223 319.385 438.761 320.057 436.415 323.879C437.399 318.724 436.671 313.056 433.312 308.589C429.953 304.121 423.647 301.203 417.976 302.372C413.668 303.26 410.317 306.289 408.315 309.785C406.312 313.281 405.473 317.243 404.679 321.149C400.692 316.971 392.92 316.345 388.565 319.855C384.211 323.364 384.119 330.328 388.375 334.289C384.617 332.153 379.443 331.62 376.125 334.011C372.805 336.401 373.476 339.088 377.427 340.903L441.272 355.3Z" fill="#00A721"/>
<path d="M712.004 391.653C715.854 392.152 720.288 391.365 722.217 388.436C724.145 385.505 721.39 380.561 717.604 381.15C721.109 378.126 723.968 374.293 724.626 369.913C725.284 365.534 723.362 360.593 719.125 358.116C714.888 355.638 708.45 356.501 706.217 360.39C707.048 355.209 706.152 349.565 702.662 345.198C699.173 340.834 692.782 338.101 687.149 339.438C682.869 340.454 679.609 343.581 677.712 347.134C675.814 350.689 675.092 354.674 674.414 358.602C670.306 354.542 662.518 354.149 658.269 357.786C654.021 361.422 654.134 368.385 658.506 372.22C654.688 370.194 649.5 369.816 646.254 372.304C643.006 374.792 643.756 377.458 647.758 379.154L712.004 391.653Z" fill="#00A721"/>
<path d="M798.974 401.885C802.826 402.383 807.258 401.597 809.187 398.667C811.116 395.737 808.36 390.793 804.575 391.382C808.079 388.358 810.939 384.525 811.596 380.145C812.254 375.766 810.332 370.825 806.095 368.347C801.859 365.87 795.42 366.733 793.187 370.622C794.018 365.441 793.123 359.797 789.632 355.43C786.143 351.066 779.752 348.333 774.119 349.67C769.839 350.686 766.579 353.813 764.682 357.366C762.784 360.921 762.062 364.906 761.384 368.834C757.276 364.774 749.49 364.381 745.24 368.018C740.991 371.654 741.106 378.617 745.476 382.451C741.659 380.426 736.47 380.047 733.223 382.535C729.978 385.023 730.726 387.69 734.728 389.386L798.974 401.885Z" fill="#00A721"/>
<path d="M893.618 419.791C897.469 420.29 901.902 419.503 903.832 416.572C905.76 413.643 903.005 408.699 899.218 409.288C902.724 406.263 905.582 402.43 906.241 398.051C906.898 393.672 904.977 388.73 900.74 386.254C896.502 383.775 890.065 384.639 887.832 388.527C888.662 383.347 887.766 377.702 884.277 373.336C880.788 368.971 874.397 366.239 868.764 367.575C864.484 368.592 861.224 371.718 859.326 375.272C857.428 378.826 856.706 382.811 856.029 386.74C851.921 382.68 844.133 382.286 839.884 385.923C835.636 389.56 835.75 396.522 840.121 400.356C836.302 398.332 831.114 397.954 827.868 400.44C824.622 402.93 825.37 405.595 829.373 407.291L893.618 419.791Z" fill="#00A721"/>
<path d="M221.747 75.0866L374.523 75.6026L375.039 78.1839C375.039 78.1839 392.192 146.48 393.164 167.816L393.027 169.443C525.764 175.004 584.862 193.428 590.315 195.868C595.808 198.327 576.83 257.328 576.83 257.328C484.936 204.225 428.002 303.547 428.002 303.547L380.558 303.055C380.388 297.423 381.412 280.397 382.842 260.304L333.232 258.831C333.232 258.831 300.716 168.507 215.554 168.507C215.554 168.507 218.134 82.3119 221.747 75.0866Z" fill="#FF8107"/>
<mask id="mask10_0_1" style="mask-type:luminance" maskUnits="userSpaceOnUse" x="281" y="190" width="303" height="114">
<path d="M281.729 190.297H583.093V303.547H281.729V190.297Z" fill="white"/>
</mask>
<g mask="url(#mask10_0_1)">
<g opacity="0.130005">
<path d="M333.881 227.481C355.859 242.262 380.993 252.657 407.903 251.754C423.945 251.217 438.789 246.822 453.522 240.777C467.681 234.966 481.427 229.405 496.513 226.461C498.757 226.024 501.006 225.614 503.262 225.24C504.265 225.074 505.269 224.922 506.271 224.762C506.325 224.754 506.589 224.714 506.882 224.67C507.465 224.593 508.502 224.453 508.743 224.425C509.749 224.306 510.757 224.194 511.763 224.092C513.525 223.91 515.287 223.752 517.053 223.621C524.57 223.065 532.131 222.982 539.653 223.518C541.15 223.625 542.641 223.777 544.137 223.913C544.191 223.918 544.423 223.942 544.687 223.969C545.259 224.048 546.269 224.177 546.513 224.217C547.254 224.336 547.994 224.457 548.733 224.589C552.434 225.248 556.103 226.081 559.723 227.097C561.909 227.709 564.077 228.388 566.222 229.133C567.181 229.468 568.129 229.83 569.083 230.176C569.122 230.19 569.442 230.313 569.77 230.437C570.31 230.67 571.37 231.114 571.579 231.21C572.283 231.532 572.985 231.858 573.682 232.196C575.561 233.106 577.402 234.084 579.231 235.09C580.491 235.784 581.787 236.281 583.094 236.629C579.826 248.01 576.83 257.328 576.83 257.328C484.937 204.226 428.002 303.546 428.002 303.546L380.558 303.054C380.389 297.422 381.413 280.398 382.842 260.304L333.233 258.83C333.233 258.83 318.173 217.026 281.73 190.297C299.913 201.497 316.165 215.566 333.881 227.481Z" fill="#002E3B"/>
</g>
</g>
<path d="M304.155 294.506C304.155 292.947 304.115 291.396 304.038 289.856L319.968 287.546L317.182 268.326L300.991 270.674C299.711 265.946 298.063 261.37 296.072 256.98L310.435 248.758L300.786 231.904L286.197 240.255C283.827 237.074 281.251 234.055 278.493 231.212L289.449 218.279L274.631 205.726L263.564 218.788C260.691 216.875 257.707 215.118 254.616 213.535L260.838 197.52L242.734 190.487L236.475 206.598C232.09 205.443 227.576 204.606 222.959 204.115V186.78H203.538V204.115C200.656 204.422 197.815 204.859 195.02 205.427L189.69 188.968L171.212 194.952L176.518 211.331C174.079 212.41 171.696 213.591 169.376 214.872L159.415 200.887L143.596 212.154L153.471 226.019C151.418 227.812 149.443 229.698 147.559 231.667L134.019 221.486L122.348 237.008L135.7 247.048C133.19 251.143 130.998 255.45 129.151 259.936L113.234 255.546L108.068 274.267L123.731 278.588C122.819 283.756 122.34 289.076 122.34 294.506C122.34 295.199 122.351 295.888 122.367 296.576L106.527 298.872L109.314 318.094L124.864 315.839C126.036 320.708 127.594 325.428 129.515 329.959L116.06 337.662L125.71 354.516L138.97 346.924C141.372 350.323 144.004 353.547 146.84 356.579L137.046 368.142L151.864 380.695L161.538 369.275C164.576 371.382 167.751 373.307 171.044 375.036L165.658 388.9L183.762 395.932L189.11 382.167C193.779 383.45 198.599 384.371 203.538 384.896V399.639H222.959V384.896C226.11 384.562 229.212 384.064 232.26 383.416L236.806 397.452L255.283 391.467L250.712 377.359C253.358 376.159 255.936 374.839 258.439 373.402L267.08 385.534L282.899 374.266L274.155 361.988C276.32 360.034 278.391 357.976 280.359 355.823L292.476 364.934L304.148 349.411L291.863 340.174C294.35 335.904 296.495 331.414 298.268 326.738L313.262 330.874L318.427 312.151L303.164 307.942C303.815 303.556 304.155 299.071 304.155 294.506Z" fill="#002E3B"/>
<mask id="mask11_0_1" style="mask-type:luminance" maskUnits="userSpaceOnUse" x="131" y="186" width="189" height="148">
<path d="M131.732 186.781H319.968V333.064H131.732V186.781Z" fill="white"/>
</mask>
<g mask="url(#mask11_0_1)">
<g opacity="0.259995">
<path d="M304.155 294.506C304.155 299.072 303.815 303.556 303.164 307.942L318.427 312.151L313.261 330.874L298.268 326.738C297.452 328.888 296.548 330.995 295.579 333.064C284.705 325.548 273.727 318.186 262.697 310.902C220.269 282.884 177.904 254.756 135.376 226.895C134.164 226.102 132.944 225.319 131.732 224.53L134.019 221.486L147.559 231.667C149.443 229.698 151.417 227.812 153.471 226.019L143.596 212.154L159.415 200.887L169.376 214.872C171.696 213.591 174.079 212.41 176.517 211.331L171.212 194.952L189.689 188.968L195.02 205.427C197.815 204.859 200.656 204.422 203.537 204.115V186.782H222.959V204.115C227.576 204.606 232.091 205.443 236.475 206.598L242.733 190.487L260.837 197.52L254.616 213.535C257.707 215.118 260.691 216.875 263.564 218.788L274.631 205.726L289.449 218.279L278.493 231.212C281.251 234.055 283.827 237.074 286.197 240.255L300.785 231.904L310.435 248.758L296.072 256.98C298.063 261.37 299.711 265.946 300.991 270.674L317.181 268.326L319.968 287.546L304.037 289.856C304.115 291.396 304.155 292.947 304.155 294.506Z" fill="#002E3B"/>
</g>
</g>
<path d="M594.87 320.964C594.87 319.786 594.84 318.612 594.782 317.448L606.831 315.702L604.723 301.163L592.478 302.938C591.508 299.363 590.262 295.902 588.756 292.583L599.62 286.363L592.322 273.614L581.287 279.932C579.495 277.524 577.546 275.242 575.46 273.092L583.747 263.308L572.538 253.814L564.168 263.694C561.995 262.247 559.738 260.918 557.399 259.72L562.106 247.606L548.412 242.287L543.678 254.474C540.362 253.6 536.948 252.967 533.455 252.596V239.484H518.764V252.596C516.586 252.827 514.436 253.159 512.323 253.588L508.291 241.139L494.315 245.664L498.328 258.052C496.483 258.87 494.682 259.763 492.926 260.732L485.392 250.155L473.427 258.675L480.896 269.163C479.343 270.52 477.85 271.944 476.424 273.435L466.183 265.735L457.355 277.476L467.455 285.07C465.556 288.164 463.898 291.424 462.502 294.818L450.462 291.496L446.555 305.658L458.402 308.926C457.711 312.835 457.35 316.858 457.35 320.964C457.35 321.49 457.358 322.01 457.37 322.531L445.39 324.27L447.498 338.807L459.259 337.102C460.146 340.784 461.323 344.355 462.776 347.78L452.599 353.606L459.898 366.355L469.927 360.612C471.744 363.184 473.736 365.622 475.88 367.916L468.472 376.66L479.682 386.156L486.998 377.519C489.296 379.111 491.698 380.568 494.188 381.876L490.115 392.363L503.807 397.682L507.852 387.27C511.384 388.24 515.03 388.936 518.764 389.334V400.486H533.455V389.334C535.839 389.08 538.186 388.706 540.49 388.215L543.928 398.83L557.904 394.304L554.447 383.632C556.448 382.726 558.398 381.726 560.292 380.639L566.827 389.816L578.792 381.294L572.179 372.007C573.816 370.528 575.383 368.972 576.871 367.343L586.036 374.235L594.864 362.494L585.572 355.507C587.454 352.276 589.076 348.88 590.418 345.344L601.759 348.474L605.664 334.312L594.12 331.127C594.612 327.811 594.87 324.419 594.87 320.964Z" fill="#002E3B"/>
<mask id="mask12_0_1" style="mask-type:luminance" maskUnits="userSpaceOnUse" x="473" y="239" width="134" height="128">
<path d="M473.427 239.484H606.831V366.992H473.427V239.484Z" fill="white"/>
</mask>
<g mask="url(#mask12_0_1)">
<g opacity="0.259995">
<path d="M594.87 320.964C594.87 324.419 594.612 327.811 594.12 331.127L605.664 334.312L601.759 348.473L590.418 345.344C589.076 348.88 587.454 352.276 585.572 355.507L594.864 362.493L591.482 366.992C585.132 361.859 578.924 356.551 572.775 351.179C558.435 338.651 544.255 326.008 529.37 314.119C512.538 300.674 495.475 287.518 478.306 274.504C477.746 274.08 477.184 273.659 476.624 273.235C477.991 271.819 479.414 270.458 480.896 269.163L473.427 258.676L485.392 250.155L492.926 260.732C494.682 259.763 496.483 258.87 498.328 258.052L494.315 245.664L508.291 241.139L512.323 253.588C514.436 253.159 516.586 252.827 518.764 252.596V239.485H533.455V252.596C536.948 252.967 540.362 253.6 543.678 254.474L548.412 242.287L562.106 247.606L557.399 259.72C559.738 260.918 561.995 262.247 564.168 263.694L572.538 253.814L583.747 263.308L575.46 273.092C577.546 275.241 579.495 277.524 581.287 279.932L592.322 273.614L599.62 286.363L588.756 292.583C590.262 295.902 591.508 299.363 592.478 302.938L604.723 301.163L606.831 315.702L594.782 317.448C594.84 318.612 594.87 319.786 594.87 320.964Z" fill="#002E3B"/>
</g>
</g>
<path d="M378.526 74.511H216.866C212.976 74.511 209.794 71.3283 209.794 67.4376C209.794 63.5483 212.976 60.3656 216.866 60.3656H378.526C382.416 60.3656 385.598 63.5483 385.598 67.4376C385.598 71.3283 382.416 74.511 378.526 74.511Z" fill="#002E3B"/>
<mask id="mask13_0_1" style="mask-type:luminance" maskUnits="userSpaceOnUse" x="209" y="60" width="177" height="6">
<path d="M209.996 60.3653H385.4V65.8054H209.996V60.3653Z" fill="white"/>
</mask>
<g mask="url(#mask13_0_1)">
<g opacity="0.399994">
<path d="M385.046 65.7948H209.995C210.742 62.6921 213.543 60.3655 216.866 60.3655H378.526C381.853 60.3655 384.657 62.6975 385.399 65.8041C385.282 65.8015 385.165 65.7948 385.046 65.7948Z" fill="white"/>
</g>
</g>
<mask id="mask14_0_1" style="mask-type:luminance" maskUnits="userSpaceOnUse" x="158" y="240" width="108" height="109">
<path d="M158.645 240.853H265.952V348.159H158.645V240.853Z" fill="white"/>
</mask>
<g mask="url(#mask14_0_1)">
<g opacity="0.380005">
<path d="M265.952 294.506C265.952 324.138 241.93 348.159 212.298 348.159C182.666 348.159 158.646 324.138 158.646 294.506C158.646 264.874 182.666 240.854 212.298 240.854C241.93 240.854 265.952 264.874 265.952 294.506Z" fill="white"/>
</g>
</g>
<mask id="mask15_0_1" style="mask-type:luminance" maskUnits="userSpaceOnUse" x="162" y="244" width="101" height="101">
<path d="M162.348 244.555H262.251V344.457H162.348V244.555Z" fill="white"/>
</mask>
<g mask="url(#mask15_0_1)">
<g opacity="0.509995">
<path d="M163.225 294.506C163.225 321.566 185.239 343.58 212.299 343.58C239.358 343.58 261.373 321.566 261.373 294.506C261.373 267.446 239.358 245.431 212.299 245.431C185.239 245.431 163.225 267.446 163.225 294.506ZM162.347 294.506C162.347 266.963 184.755 244.555 212.299 244.555C239.842 244.555 262.251 266.963 262.251 294.506C262.251 322.048 239.842 344.458 212.299 344.458C184.755 344.458 162.347 322.048 162.347 294.506Z" fill="#002E3B"/>
</g>
</g>
<path d="M234.221 294.506C234.221 306.614 224.406 316.427 212.299 316.427C200.191 316.427 190.377 306.614 190.377 294.506C190.377 282.399 200.191 272.584 212.299 272.584C224.406 272.584 234.221 282.399 234.221 294.506Z" fill="#002E3B"/>
<mask id="mask16_0_1" style="mask-type:luminance" maskUnits="userSpaceOnUse" x="192" y="274" width="40" height="41">
<path d="M192.776 274.983H231.821V314.029H192.776V274.983Z" fill="white"/>
</mask>
<g mask="url(#mask16_0_1)">
<g opacity="0.539993">
<path d="M193.439 294.506C193.439 304.906 201.9 313.366 212.299 313.366C222.699 313.366 231.159 304.906 231.159 294.506C231.159 284.106 222.699 275.646 212.299 275.646C201.9 275.646 193.439 284.106 193.439 294.506ZM192.776 294.506C192.776 283.742 201.533 274.982 212.299 274.982C223.064 274.982 231.821 283.742 231.821 294.506C231.821 305.271 223.064 314.03 212.299 314.03C201.533 314.03 192.776 305.271 192.776 294.506Z" fill="white"/>
</g>
</g>
<path d="M214.349 256.411C214.349 257.888 213.15 259.088 211.671 259.088C210.193 259.088 208.994 257.888 208.994 256.411C208.994 254.932 210.193 253.733 211.671 253.733C213.15 253.733 214.349 254.932 214.349 256.411Z" fill="#002E3B"/>
<path d="M215.241 331.369C215.241 332.848 214.042 334.046 212.563 334.046C211.085 334.046 209.886 332.848 209.886 331.369C209.886 329.892 211.085 328.692 212.563 328.692C214.042 328.692 215.241 329.892 215.241 331.369Z" fill="#002E3B"/>
<path d="M249.597 296.12C248.119 296.12 246.92 294.923 246.92 293.443C246.92 291.966 248.119 290.766 249.597 290.766C251.076 290.766 252.275 291.966 252.275 293.443C252.275 294.923 251.076 296.12 249.597 296.12Z" fill="#002E3B"/>
<path d="M174.638 297.014C173.159 297.014 171.961 295.815 171.961 294.336C171.961 292.858 173.159 291.659 174.638 291.659C176.117 291.659 177.315 292.858 177.315 294.336C177.315 295.815 176.117 297.014 174.638 297.014Z" fill="#002E3B"/>
<path d="M237.626 321.441C236.559 320.417 236.523 318.722 237.546 317.655C238.57 316.587 240.265 316.553 241.331 317.577C242.399 318.599 242.434 320.294 241.411 321.361C240.387 322.427 238.693 322.465 237.626 321.441Z" fill="#002E3B"/>
<path d="M182.903 270.204C181.837 269.18 181.801 267.486 182.823 266.418C183.847 265.352 185.542 265.316 186.609 266.34C187.677 267.362 187.711 269.058 186.689 270.124C185.666 271.192 183.971 271.228 182.903 270.204Z" fill="#002E3B"/>
<path d="M185.681 320.551C186.659 319.442 188.349 319.334 189.46 320.31C190.571 321.287 190.677 322.978 189.701 324.089C188.724 325.198 187.032 325.306 185.923 324.33C184.813 323.354 184.705 321.661 185.681 320.551Z" fill="#002E3B"/>
<path d="M234.534 263.691C235.512 262.581 237.202 262.473 238.313 263.449C239.424 264.427 239.53 266.119 238.554 267.228C237.577 268.337 235.885 268.445 234.776 267.469C233.666 266.493 233.558 264.801 234.534 263.691Z" fill="#002E3B"/>
<mask id="mask17_0_1" style="mask-type:luminance" maskUnits="userSpaceOnUse" x="484" y="280" width="82" height="82">
<path d="M484.811 280.383H565.973V361.547H484.811V280.383Z" fill="white"/>
</mask>
<g mask="url(#mask17_0_1)">
<g opacity="0.380005">
<path d="M565.974 320.964C565.974 343.377 547.805 361.547 525.391 361.547C502.979 361.547 484.81 343.377 484.81 320.964C484.81 298.552 502.979 280.383 525.391 280.383C547.805 280.383 565.974 298.552 565.974 320.964Z" fill="white"/>
</g>
</g>
<mask id="mask18_0_1" style="mask-type:luminance" maskUnits="userSpaceOnUse" x="488" y="283" width="75" height="75">
<path d="M488.411 283.984H562.373V357.945H488.411V283.984Z" fill="white"/>
</mask>
<g mask="url(#mask18_0_1)">
<g opacity="0.509995">
<path d="M489.288 320.965C489.288 340.873 505.484 357.068 525.392 357.068C545.3 357.068 561.495 340.873 561.495 320.965C561.495 301.057 545.3 284.861 525.392 284.861C505.484 284.861 489.288 301.057 489.288 320.965ZM488.411 320.965C488.411 300.573 505.002 283.984 525.392 283.984C545.783 283.984 562.372 300.573 562.372 320.965C562.372 341.356 545.783 357.944 525.392 357.944C505.002 357.944 488.411 341.356 488.411 320.965Z" fill="#002E3B"/>
</g>
</g>
<path d="M541.973 320.964C541.973 330.123 534.55 337.547 525.392 337.547C516.234 337.547 508.81 330.123 508.81 320.964C508.81 311.807 516.234 304.383 525.392 304.383C534.55 304.383 541.973 311.807 541.973 320.964Z" fill="#002E3B"/>
<mask id="mask19_0_1" style="mask-type:luminance" maskUnits="userSpaceOnUse" x="511" y="307" width="28" height="28">
<path d="M511.943 307.515H538.841V334.414H511.943V307.515Z" fill="white"/>
</mask>
<g mask="url(#mask19_0_1)">
<g opacity="0.539993">
<path d="M512.606 320.965C512.606 328.015 518.342 333.751 525.391 333.751C532.442 333.751 538.178 328.015 538.178 320.965C538.178 313.915 532.442 308.179 525.391 308.179C518.342 308.179 512.606 313.915 512.606 320.965ZM511.943 320.965C511.943 313.549 517.977 307.515 525.391 307.515C532.807 307.515 538.841 313.549 538.841 320.965C538.841 328.381 532.807 334.415 525.391 334.415C517.977 334.415 511.943 328.381 511.943 320.965Z" fill="white"/>
</g>
</g>
<path d="M526.943 292.15C526.943 293.269 526.036 294.176 524.917 294.176C523.8 294.176 522.893 293.269 522.893 292.15C522.893 291.032 523.8 290.125 524.917 290.125C526.036 290.125 526.943 291.032 526.943 292.15Z" fill="#002E3B"/>
<path d="M527.618 348.847C527.618 349.966 526.711 350.872 525.592 350.872C524.475 350.872 523.568 349.966 523.568 348.847C523.568 347.728 524.475 346.822 525.592 346.822C526.711 346.822 527.618 347.728 527.618 348.847Z" fill="#002E3B"/>
<path d="M553.604 322.187C552.485 322.187 551.579 321.279 551.579 320.16C551.579 319.044 552.485 318.136 553.604 318.136C554.723 318.136 555.629 319.044 555.629 320.16C555.629 321.279 554.723 322.187 553.604 322.187Z" fill="#002E3B"/>
<path d="M496.907 322.861C495.788 322.861 494.881 321.955 494.881 320.836C494.881 319.719 495.788 318.812 496.907 318.812C498.025 318.812 498.932 319.719 498.932 320.836C498.932 321.955 498.025 322.861 496.907 322.861Z" fill="#002E3B"/>
<path d="M544.549 341.338C543.743 340.563 543.716 339.282 544.489 338.475C545.263 337.667 546.545 337.64 547.352 338.415C548.16 339.188 548.187 340.47 547.412 341.276C546.637 342.084 545.356 342.111 544.549 341.338Z" fill="#002E3B"/>
<path d="M503.159 302.584C502.352 301.809 502.325 300.528 503.099 299.721C503.872 298.913 505.155 298.887 505.961 299.661C506.769 300.435 506.796 301.717 506.021 302.523C505.248 303.331 503.965 303.357 503.159 302.584Z" fill="#002E3B"/>
<path d="M505.26 340.665C505.998 339.825 507.278 339.745 508.118 340.482C508.957 341.222 509.038 342.501 508.3 343.341C507.561 344.181 506.282 344.261 505.442 343.523C504.602 342.785 504.521 341.505 505.26 340.665Z" fill="#002E3B"/>
<path d="M542.211 297.657C542.949 296.817 544.229 296.737 545.069 297.474C545.908 298.214 545.989 299.493 545.251 300.333C544.512 301.173 543.233 301.253 542.393 300.515C541.553 299.777 541.472 298.497 542.211 297.657Z" fill="#002E3B"/>
<path d="M587.356 253.58C587.356 253.58 585.985 260.221 576.895 257.813C567.804 255.404 486.864 224.317 440.175 313.755C440.175 313.755 429.236 312.561 426.852 300.885C424.468 289.207 485.407 195.253 587.356 253.58Z" fill="#002E3B"/>
<path d="M440.389 287.11C441.442 285.523 442.542 283.969 443.675 282.438C443.714 282.439 445.225 280.554 445.711 279.991C448.059 277.277 450.563 274.694 453.218 272.277C454.821 270.817 456.467 269.401 458.123 268.003C458.839 267.399 459.561 266.802 460.287 266.21C460.429 266.094 460.885 265.727 461.279 265.409C461.827 265.01 463.773 263.538 464.217 263.219C465.722 262.138 467.247 261.085 468.794 260.066C472.063 257.911 475.423 255.895 478.874 254.045C480.29 253.286 481.719 252.553 483.163 251.853C483.793 251.546 486.931 250.154 486.611 250.25C493.101 247.642 499.843 245.646 506.723 244.382C507.766 244.191 508.811 244.03 509.857 243.859C509.927 243.858 509.987 243.857 510.078 243.851C511.979 243.753 513.875 243.502 515.779 243.409C519.141 243.242 522.507 243.267 525.871 243.315C533.121 243.421 540.371 243.755 547.593 244.41C549.705 244.601 551.815 244.822 553.922 245.074C554.169 245.103 555.027 245.221 555.569 245.293C555.733 245.318 555.866 245.339 555.918 245.347C559.597 245.942 563.261 246.581 566.897 247.402C570.393 248.191 573.863 249.115 577.269 250.234C578.903 250.77 580.503 251.385 582.118 251.975C578.779 250.754 582.802 252.315 583.901 252.853C584.987 253.382 586.087 253.799 587.191 254.119C586.629 255.649 584.378 259.797 576.894 257.813C567.805 255.405 486.865 224.317 440.175 313.754C440.175 313.754 433.327 313.002 429.286 306.903C432.642 300.111 436.199 293.43 440.389 287.11Z" fill="#002E3B"/>
<path d="M586.397 221.409C586.397 221.409 572.63 207.643 572.138 204.201L591.314 202.725C591.314 202.725 588.364 217.968 586.397 221.409Z" fill="white"/>
<path d="M499.861 193.383L506.745 216.493L499.861 216.001L492.977 192.893L499.861 193.383Z" fill="#002E3B"/>
<path d="M489.043 192.4L495.927 215.51L489.043 215.018L482.159 191.908L489.043 192.4Z" fill="#002E3B"/>
<path d="M478.718 192.4L485.602 215.51L478.718 215.018L471.834 191.908L478.718 192.4Z" fill="#002E3B"/>
<path d="M505.555 212.502L506.745 216.493L499.861 216.001L497.679 208.679C500.306 209.951 502.931 211.225 505.555 212.502Z" fill="#002E3B"/>
<path d="M493.254 206.534L495.927 215.509L489.043 215.017L485.379 202.716C488.003 203.99 490.628 205.264 493.254 206.534Z" fill="#002E3B"/>
<path d="M481.182 200.674L485.601 215.51L478.718 215.018L473.293 196.806C475.919 198.099 478.549 199.39 481.182 200.674Z" fill="#002E3B"/>
<path d="M366.265 95.5019C366.265 95.5019 373.49 158.415 372.458 167.474L227.425 159.925L231.554 91.4752C231.554 91.4752 353.362 89.4619 366.265 95.5019Z" fill="#87EFFF"/>
<mask id="mask20_0_1" style="mask-type:luminance" maskUnits="userSpaceOnUse" x="284" y="91" width="87" height="48">
<path d="M284.939 91.172H370.767V138.68H284.939V91.172Z" fill="white"/>
</mask>
<g mask="url(#mask20_0_1)">
<g opacity="0.399994">
<path d="M356.314 130.234C332.811 116.68 308.98 103.725 284.939 91.1716C319.444 91.301 359.196 92.193 366.264 95.5023C366.264 95.5023 368.906 118.493 370.766 138.68C365.963 135.841 361.147 133.022 356.314 130.234Z" fill="white"/>
</g>
</g>
<mask id="mask21_0_1" style="mask-type:luminance" maskUnits="userSpaceOnUse" x="227" y="99" width="128" height="68">
<path d="M227.424 99.9854H354.027V166.515H227.424V99.9854Z" fill="white"/>
</mask>
<g mask="url(#mask21_0_1)">
<g opacity="0.0800018">
<path d="M354.027 166.515L227.424 159.926L231.041 99.9856C272.693 120.934 313.891 142.81 354.027 166.515Z" fill="#00556E"/>
</g>
</g>
<path d="M333.232 258.83C333.232 258.83 296.071 136.507 157.747 175.733C157.747 175.733 153.618 180.894 153.618 183.991C153.618 183.991 120.584 204.121 117.488 218.055C117.488 218.055 122.134 222.186 136.068 216.507C136.068 216.507 242.392 143.217 308.458 260.895C308.458 260.895 322.91 265.539 333.232 258.83Z" fill="#002E3B"/>
<path d="M153.617 183.991C153.617 183.666 153.672 183.314 153.753 182.953C153.806 182.931 153.86 182.914 153.913 182.894C158.466 181.153 162.953 179.242 167.75 178.267C169.018 178.01 170.298 177.805 171.576 177.597C174.842 177.065 172.674 177.453 171.972 177.534C174.605 177.227 177.246 176.981 179.89 176.775C184.664 176.402 189.449 176.069 194.236 175.953C198.524 175.85 202.816 175.909 207.098 176.139C209.013 176.243 210.924 176.381 212.833 176.554C213.788 176.641 214.742 176.737 215.697 176.842C215.882 176.861 216.434 176.929 216.932 176.989C217.733 177.117 219.63 177.401 219.937 177.453C220.884 177.613 221.828 177.782 222.77 177.962C224.654 178.319 226.529 178.717 228.396 179.154C232.35 180.079 236.264 181.185 240.113 182.486C242.145 183.173 244.129 183.974 246.142 184.71C246.15 184.713 246.154 184.714 246.162 184.718C246.178 184.726 246.188 184.731 246.205 184.739C247.06 185.153 247.936 185.522 248.792 185.931C252.43 187.667 255.973 189.606 259.382 191.758C262.562 193.766 265.59 195.994 268.606 198.238C269.934 199.226 271.252 200.23 272.57 201.231C272.692 201.329 272.812 201.426 272.969 201.553C273.65 202.102 274.342 202.639 275.026 203.187C287.062 212.831 298.498 223.378 308.268 235.346C308.409 235.518 309.173 236.487 309.616 237.042C309.894 237.414 310.202 237.825 310.308 237.967C311.37 239.415 312.405 240.883 313.408 242.374C315.508 245.497 317.469 248.713 319.25 252.027C320.178 253.757 321.053 255.514 321.874 257.295C321.966 257.493 322.202 258.051 322.392 258.493C322.533 258.859 322.674 259.231 322.733 259.387C323.081 260.314 323.404 261.246 323.714 262.183C315.774 263.242 308.457 260.895 308.457 260.895C242.393 143.217 136.069 216.507 136.069 216.507C122.133 222.185 117.488 218.055 117.488 218.055C120.585 204.121 153.617 183.991 153.617 183.991Z" fill="#002E3B"/>
<path d="M314.652 114.829L288.329 147.346" stroke="white" stroke-width="0.664" stroke-miterlimit="10"/>
<path d="M314.135 128.764L303.813 143.216" stroke="white" stroke-width="0.664" stroke-miterlimit="10"/>
<path d="M304.329 115.345L291.426 131.861" stroke="white" stroke-width="0.664" stroke-miterlimit="10"/>
<path d="M383.823 301.554C383.823 301.554 388.459 344.509 386.909 351.735C386.909 351.735 354.909 356.897 346.136 352.25C346.136 352.25 329.62 264.509 326.523 262.443L333.232 258.83L385.361 260.378L383.823 301.554Z" fill="#002E3B"/>
<mask id="mask22_0_1" style="mask-type:luminance" maskUnits="userSpaceOnUse" x="340" y="271" width="39" height="77">
<path d="M340.459 271.733H378.156V347.606H340.459V271.733Z" fill="white"/>
</mask>
<g mask="url(#mask22_0_1)">
<g opacity="0.529999">
<path d="M368.846 273.282C368.846 273.282 378.652 340.379 378.136 346.574L353.362 347.606L340.458 271.734L368.846 273.282Z" fill="white"/>
</g>
</g>
<path d="M373.812 293.031L341.532 293.412L342.75 299.605L374.996 298.572L373.812 293.031Z" fill="#002E3B"/>
<path d="M377.308 317.223L345.681 318.211L347.122 325.142L378.038 324.251L377.308 317.223Z" fill="#002E3B"/>
<path d="M358.613 182.43L372.112 183.041C373.255 183.092 374.231 182.2 374.283 181.058C374.335 179.916 373.443 178.938 372.3 178.888L358.801 178.277C357.659 178.225 356.683 179.118 356.631 180.26C356.579 181.402 357.472 182.378 358.613 182.43Z" fill="#002E3B"/>
<path d="M406.202 170.107C406.202 170.107 410.803 116.914 406.928 116.178C403.054 115.442 393.78 112.821 392.7 113.694C391.62 114.569 386.098 189.071 387.23 190.837C388.362 192.602 392.903 190.115 392.903 190.115L396.979 170.127L406.202 170.107Z" fill="#002E3B"/>
<mask id="mask23_0_1" style="mask-type:luminance" maskUnits="userSpaceOnUse" x="396" y="114" width="13" height="58">
<path d="M396.673 114.816H408.48V171.628H396.673V114.816Z" fill="white"/>
</mask>
<g mask="url(#mask23_0_1)">
<g opacity="0.399994">
<path d="M396.701 171.003C397.074 162.466 398.114 154.015 398.836 145.505C399.702 135.287 400.297 125.051 400.913 114.815C403.201 115.345 405.454 115.898 406.928 116.177C410.802 116.914 406.201 170.107 406.201 170.107L396.978 170.127L396.673 171.629C396.682 171.419 396.692 171.211 396.701 171.003Z" fill="white"/>
</g>
</g>
<path d="M412.314 99.6126L416.152 88.1606C416.152 88.1606 392.77 91.3019 392.552 115.319L401.056 115.883C401.056 115.883 396.904 105.238 412.314 99.6126Z" fill="#002E3B"/>
<mask id="mask24_0_1" style="mask-type:luminance" maskUnits="userSpaceOnUse" x="224" y="84" width="368" height="177">
<path d="M224.052 84.6947H591.887V260.404H224.052V84.6947Z" fill="white"/>
</mask>
<g mask="url(#mask24_0_1)">
<g opacity="0.419998">
<path d="M391.232 181.037L391.165 180.162C427.522 177.366 480.166 182.732 517.926 187.725C558.828 193.133 591.561 199.284 591.888 199.344L591.725 200.206C591.398 200.145 558.69 194 517.812 188.594C480.093 183.606 427.518 178.245 391.232 181.037Z" fill="#002E3B"/>
<path d="M388.768 182.758C388.763 183.049 388.463 197.401 387.656 214.088C505.249 216.042 539.063 232.161 539.391 232.324L539 233.113C538.673 232.952 504.952 216.914 387.613 214.968C386.773 232.029 385.401 251.293 383.269 260.402L382.415 260.204C386.659 242.073 387.879 183.333 387.891 182.74L388.768 182.758Z" fill="#002E3B"/>
<path d="M375.146 171.704L224.968 163.101L227.934 85.6104L368.641 90.6691C369.264 96.1864 376.352 159.533 375.146 171.704ZM224.052 163.934L375.925 172.633L375.977 172.225C377.468 160.602 369.804 93.0611 369.477 90.1904L369.434 89.8131L227.085 84.6944L227.068 85.1358L224.052 163.934Z" fill="#002E3B"/>
</g>
</g>
<mask id="mask25_0_1" style="mask-type:luminance" maskUnits="userSpaceOnUse" x="153" y="67" width="433" height="240">
<path d="M153.536 67.3174H585.656V306.509H153.536V67.3174Z" fill="white"/>
</mask>
<g mask="url(#mask25_0_1)">
<g opacity="0.559998">
<path d="M233.341 182.348C252.592 187.498 270.104 197.043 285.388 210.711C311.406 233.982 322.082 261.534 322.188 261.81L321.566 262.044C321.462 261.771 310.833 234.348 284.925 211.188C269.72 197.595 252.3 188.104 233.153 182.986C209.21 176.583 182.478 177.03 153.698 184.312L153.536 183.668C182.433 176.358 209.284 175.912 233.341 182.348Z" fill="white"/>
<path d="M209.795 67.3173H383.541V67.9813H209.795V67.3173Z" fill="white"/>
<path d="M473.474 256.262C488.233 247.788 505.503 243.25 524.809 242.778C557.617 241.974 585.381 253.39 585.657 253.506L585.386 254.154C585.11 254.04 557.498 242.672 524.803 243.482C505.621 243.954 488.466 248.461 473.813 256.88C455.499 267.4 441.058 284.097 430.889 306.51L430.249 306.22C440.481 283.665 455.025 266.857 473.474 256.262Z" fill="white"/>
<path d="M392.756 113.368L400.616 114.729L400.502 115.384L399.76 115.254L397.312 170.141L396.648 170.112L399.101 115.141L392.644 114.021L392.756 113.368Z" fill="white"/>
</g>
</g>
<mask id="mask26_0_1" style="mask-type:luminance" maskUnits="userSpaceOnUse" x="395" y="169" width="197" height="32">
<path d="M395.463 169.721H591.724V200.207H395.463V169.721Z" fill="white"/>
</mask>
<g mask="url(#mask26_0_1)">
<g opacity="0.169998">
<path d="M591.139 195.661C591.139 195.661 566.207 185.839 494.183 176.773C494.183 176.773 413.918 168.479 406.202 170.107L398.485 169.722C398.485 169.722 397.478 169.973 396.974 172.491C396.471 175.01 395.463 179.291 395.463 179.291C395.463 179.291 549.083 187.098 591.725 200.206L591.139 195.661Z" fill="white"/>
</g>
</g>
<mask id="mask27_0_1" style="mask-type:luminance" maskUnits="userSpaceOnUse" x="258" y="188" width="70" height="67">
<path d="M258.384 188.993H327.255V254.316H258.384V188.993Z" fill="white"/>
</mask>
<g mask="url(#mask27_0_1)">
<g opacity="0.399994">
<path d="M327.254 251.096C327.254 251.096 326.66 257.237 321.597 252.557C316.534 247.876 300.156 208.19 258.384 189.177C258.384 189.177 288.714 182.409 327.254 251.096Z" fill="white"/>
</g>
</g>
<mask id="mask28_0_1" style="mask-type:luminance" maskUnits="userSpaceOnUse" x="475" y="237" width="70" height="16">
<path d="M475.756 237.177H544.621V252.679H475.756V237.177Z" fill="white"/>
</mask>
<g mask="url(#mask28_0_1)">
<g opacity="0.399994">
<path d="M544.43 238.329C544.43 238.329 545.967 241.405 540.33 241.915C534.692 242.429 500.355 236.279 475.756 252.679C475.756 252.679 498.819 232.179 544.43 238.329Z" fill="white"/>
</g>
</g>
<path d="M340.139 296.486C347.349 304.769 354.638 312.984 361.827 321.285C362.535 322.237 363.239 323.196 363.949 324.149C370.874 333.457 377.87 342.717 384.75 352.06C377.419 353.116 353.53 356.166 346.137 352.25C346.137 352.25 339.167 315.23 333.434 288.716C335.658 291.317 337.895 293.906 340.139 296.486Z" fill="#002E3B"/>
<mask id="mask29_0_1" style="mask-type:luminance" maskUnits="userSpaceOnUse" x="120" y="361" width="490" height="56">
<path d="M120.041 361.262H609.112V416.151H120.041V361.262Z" fill="white"/>
</mask>
<g mask="url(#mask29_0_1)">
<g opacity="0.0800018">
<path d="M609.112 388.706C609.112 403.864 499.629 416.152 364.576 416.152C229.523 416.152 120.04 403.864 120.04 388.706C120.04 373.55 229.523 361.262 364.576 361.262C499.629 361.262 609.112 373.55 609.112 388.706Z" fill="#7C202E"/>
</g>
</g>
</g>
<path d="M1046.93 131.827C1046.59 128.389 1045.13 125.719 1042.54 123.815C1039.95 121.912 1036.45 120.96 1032.01 120.96C1029 120.96 1026.46 121.386 1024.39 122.239C1022.31 123.062 1020.72 124.213 1019.61 125.69C1018.53 127.168 1017.99 128.844 1017.99 130.719C1017.94 132.281 1018.26 133.645 1018.97 134.81C1019.71 135.974 1020.72 136.983 1022 137.835C1023.28 138.659 1024.76 139.384 1026.43 140.009C1028.11 140.605 1029.9 141.116 1031.8 141.543L1039.64 143.418C1043.45 144.27 1046.94 145.406 1050.12 146.827C1053.31 148.247 1056.06 149.994 1058.39 152.068C1060.72 154.142 1062.53 156.585 1063.8 159.398C1065.11 162.21 1065.78 165.435 1065.81 169.071C1065.78 174.412 1064.41 179.043 1061.72 182.963C1059.05 186.855 1055.18 189.881 1050.12 192.04C1045.1 194.17 1039.03 195.236 1031.93 195.236C1024.88 195.236 1018.75 194.156 1013.52 191.997C1008.32 189.838 1004.26 186.642 1001.33 182.409C998.435 178.148 996.915 172.878 996.773 166.599H1014.63C1014.83 169.526 1015.66 171.969 1017.14 173.929C1018.65 175.861 1020.65 177.324 1023.15 178.318C1025.68 179.284 1028.53 179.767 1031.72 179.767C1034.84 179.767 1037.55 179.312 1039.86 178.403C1042.18 177.494 1043.99 176.23 1045.27 174.611C1046.55 172.991 1047.18 171.131 1047.18 169.028C1047.18 167.068 1046.6 165.42 1045.44 164.085C1044.3 162.75 1042.63 161.614 1040.41 160.676C1038.22 159.739 1035.54 158.886 1032.36 158.119L1022.85 155.733C1015.49 153.943 1009.68 151.145 1005.42 147.338C1001.16 143.531 999.045 138.403 999.074 131.955C999.045 126.67 1000.45 122.054 1003.29 118.105C1006.16 114.156 1010.1 111.074 1015.1 108.858C1020.1 106.642 1025.78 105.534 1032.14 105.534C1038.62 105.534 1044.27 106.642 1049.1 108.858C1053.96 111.074 1057.74 114.156 1060.44 118.105C1063.14 122.054 1064.53 126.628 1064.61 131.827H1046.93ZM1091.27 194H1071.5L1101.62 106.727H1125.4L1155.49 194H1135.71L1113.85 126.67H1113.17L1091.27 194ZM1090.03 159.696H1136.74V174.099H1090.03V159.696ZM1165.99 194V106.727H1184.44V178.787H1221.86V194H1165.99ZM1234.08 194V106.727H1292.88V121.94H1252.53V142.736H1289.86V157.949H1252.53V178.787H1293.05V194H1234.08Z" fill="#FF8107"/>
<mask id="mask30_0_1" style="mask-type:luminance" maskUnits="userSpaceOnUse" x="1" y="-201" width="1387" height="667">
<path d="M1 -201H1387.67V465.667H1V-201Z" fill="white"/>
</mask>
<g mask="url(#mask30_0_1)">
<mask id="mask31_0_1" style="mask-type:luminance" maskUnits="userSpaceOnUse" x="791" y="-32" width="509" height="97">
<path d="M791.804 -31.332H1299.37V64.8347H791.804V-31.332Z" fill="white"/>
</mask>
<g mask="url(#mask31_0_1)">
<g opacity="0.149994">
<path d="M965.161 65V28.6364H989.237V34.9751H972.849V43.6399H987.639V49.9787H972.849V65H965.161ZM996.135 65H987.897L1000.45 28.6364H1010.36L1022.89 65H1014.65L1005.55 36.946H1005.26L996.135 65ZM995.62 50.7067H1015.08V56.7081H995.62V50.7067ZM1027.27 65V28.6364H1041.62C1044.36 28.6364 1046.71 29.1276 1048.65 30.1101C1050.6 31.0807 1052.09 32.4598 1053.1 34.2472C1054.13 36.0227 1054.65 38.112 1054.65 40.5149C1054.65 42.9297 1054.13 45.0071 1053.09 46.7472C1052.04 48.4754 1050.54 49.8011 1048.56 50.7244C1046.59 51.6477 1044.21 52.1094 1041.42 52.1094H1031.82V45.9304H1040.18C1041.65 45.9304 1042.87 45.7292 1043.84 45.3267C1044.81 44.9242 1045.53 44.3205 1046 43.5156C1046.49 42.7107 1046.73 41.7105 1046.73 40.5149C1046.73 39.3075 1046.49 38.2895 1046 37.4609C1045.53 36.6323 1044.8 36.005 1043.82 35.5788C1042.85 35.1409 1041.62 34.9219 1040.14 34.9219H1034.96V65H1027.27ZM1046.91 48.4517L1055.95 65H1047.46L1038.62 48.4517H1046.91ZM1060.08 28.6364H1069.56L1079.58 53.0682H1080L1090.02 28.6364H1099.5V65H1092.04V41.3317H1091.74L1082.33 64.8224H1077.25L1067.84 41.2429H1067.54V65H1060.08V28.6364ZM1141.52 40.3906C1141.27 39.5265 1140.92 38.763 1140.47 38.1001C1140.02 37.4254 1139.47 36.8572 1138.82 36.3956C1138.18 35.9221 1137.45 35.5611 1136.62 35.3125C1135.8 35.0639 1134.9 34.9396 1133.9 34.9396C1132.04 34.9396 1130.41 35.4013 1129 36.3246C1127.6 37.2479 1126.52 38.5914 1125.73 40.3551C1124.95 42.107 1124.56 44.2495 1124.56 46.7827C1124.56 49.3158 1124.95 51.4702 1125.72 53.2457C1126.49 55.0213 1127.57 56.3767 1128.98 57.3118C1130.39 58.2351 1132.06 58.6967 1133.97 58.6967C1135.71 58.6967 1137.2 58.389 1138.43 57.7734C1139.67 57.1461 1140.62 56.2642 1141.27 55.1278C1141.93 53.9915 1142.26 52.648 1142.26 51.0973L1143.83 51.3281H1134.45V45.5398H1149.67V50.1207C1149.67 53.3168 1148.99 56.063 1147.64 58.3594C1146.3 60.6439 1144.44 62.4077 1142.07 63.6506C1139.7 64.8816 1136.99 65.4972 1133.94 65.4972C1130.53 65.4972 1127.53 64.7455 1124.95 63.2422C1122.37 61.727 1120.36 59.5786 1118.92 56.7969C1117.48 54.0033 1116.77 50.6889 1116.77 46.8537C1116.77 43.9062 1117.19 41.2784 1118.05 38.9702C1118.91 36.6501 1120.12 34.6851 1121.67 33.0753C1123.22 31.4654 1125.02 30.2403 1127.08 29.3999C1129.14 28.5594 1131.37 28.1392 1133.78 28.1392C1135.84 28.1392 1137.75 28.4411 1139.53 29.0447C1141.31 29.6366 1142.88 30.477 1144.25 31.5661C1145.64 32.6551 1146.77 33.9512 1147.64 35.4545C1148.52 36.946 1149.08 38.5914 1149.33 40.3906H1141.52ZM1188.86 46.8182C1188.86 50.7836 1188.11 54.1572 1186.6 56.9389C1185.11 59.7206 1183.08 61.8454 1180.5 63.3132C1177.93 64.7692 1175.04 65.4972 1171.83 65.4972C1168.6 65.4972 1165.7 64.7633 1163.13 63.2955C1160.56 61.8277 1158.53 59.7029 1157.04 56.9212C1155.55 54.1394 1154.8 50.7718 1154.8 46.8182C1154.8 42.8527 1155.55 39.4792 1157.04 36.6974C1158.53 33.9157 1160.56 31.7969 1163.13 30.3409C1165.7 28.8731 1168.6 28.1392 1171.83 28.1392C1175.04 28.1392 1177.93 28.8731 1180.5 30.3409C1183.08 31.7969 1185.11 33.9157 1186.6 36.6974C1188.11 39.4792 1188.86 42.8527 1188.86 46.8182ZM1181.07 46.8182C1181.07 44.2495 1180.68 42.0833 1179.91 40.3196C1179.15 38.5559 1178.08 37.2183 1176.7 36.3068C1175.31 35.3954 1173.69 34.9396 1171.83 34.9396C1169.97 34.9396 1168.35 35.3954 1166.97 36.3068C1165.58 37.2183 1164.51 38.5559 1163.74 40.3196C1162.98 42.0833 1162.6 44.2495 1162.6 46.8182C1162.6 49.3868 1162.98 51.553 1163.74 53.3168C1164.51 55.0805 1165.58 56.4181 1166.97 57.3295C1168.35 58.241 1169.97 58.6967 1171.83 58.6967C1173.69 58.6967 1175.31 58.241 1176.7 57.3295C1178.08 56.4181 1179.15 55.0805 1179.91 53.3168C1180.68 51.553 1181.07 49.3868 1181.07 46.8182ZM1227.97 46.8182C1227.97 50.7836 1227.22 54.1572 1225.72 56.9389C1224.22 59.7206 1222.19 61.8454 1219.61 63.3132C1217.04 64.7692 1214.15 65.4972 1210.94 65.4972C1207.71 65.4972 1204.81 64.7633 1202.24 63.2955C1199.67 61.8277 1197.64 59.7029 1196.15 56.9212C1194.66 54.1394 1193.92 50.7718 1193.92 46.8182C1193.92 42.8527 1194.66 39.4792 1196.15 36.6974C1197.64 33.9157 1199.67 31.7969 1202.24 30.3409C1204.81 28.8731 1207.71 28.1392 1210.94 28.1392C1214.15 28.1392 1217.04 28.8731 1219.61 30.3409C1222.19 31.7969 1224.22 33.9157 1225.72 36.6974C1227.22 39.4792 1227.97 42.8527 1227.97 46.8182ZM1220.18 46.8182C1220.18 44.2495 1219.79 42.0833 1219.02 40.3196C1218.26 38.5559 1217.19 37.2183 1215.81 36.3068C1214.42 35.3954 1212.8 34.9396 1210.94 34.9396C1209.09 34.9396 1207.46 35.3954 1206.08 36.3068C1204.69 37.2183 1203.62 38.5559 1202.85 40.3196C1202.09 42.0833 1201.71 44.2495 1201.71 46.8182C1201.71 49.3868 1202.09 51.553 1202.85 53.3168C1203.62 55.0805 1204.69 56.4181 1206.08 57.3295C1207.46 58.241 1209.09 58.6967 1210.94 58.6967C1212.8 58.6967 1214.42 58.241 1215.81 57.3295C1217.19 56.4181 1218.26 55.0805 1219.02 53.3168C1219.79 51.553 1220.18 49.3868 1220.18 46.8182ZM1246.56 65H1233.67V28.6364H1246.66C1250.32 28.6364 1253.47 29.3643 1256.11 30.8203C1258.75 32.2644 1260.78 34.3419 1262.2 37.0526C1263.63 39.7633 1264.35 43.0066 1264.35 46.7827C1264.35 50.5705 1263.63 53.8258 1262.2 56.5483C1260.78 59.2708 1258.74 61.3601 1256.07 62.8161C1253.42 64.272 1250.25 65 1246.56 65ZM1241.35 58.4126H1246.24C1248.51 58.4126 1250.42 58.0102 1251.97 57.2053C1253.53 56.3885 1254.71 55.1278 1255.49 53.4233C1256.28 51.7069 1256.68 49.4934 1256.68 46.7827C1256.68 44.0956 1256.28 41.8999 1255.49 40.1953C1254.71 38.4908 1253.54 37.236 1251.99 36.4311C1250.44 35.6262 1248.53 35.2237 1246.26 35.2237H1241.35V58.4126ZM1289.77 39.0945C1289.63 37.6622 1289.02 36.5495 1287.94 35.7564C1286.86 34.9633 1285.4 34.5668 1283.56 34.5668C1282.3 34.5668 1281.24 34.7443 1280.38 35.0994C1279.51 35.4427 1278.85 35.9221 1278.39 36.5376C1277.94 37.1532 1277.71 37.8516 1277.71 38.6328C1277.69 39.2839 1277.83 39.852 1278.12 40.3374C1278.43 40.8227 1278.85 41.2429 1279.38 41.598C1279.92 41.9413 1280.53 42.2431 1281.23 42.5036C1281.93 42.7521 1282.67 42.9652 1283.47 43.1428L1286.73 43.924C1288.32 44.2791 1289.78 44.7526 1291.1 45.3445C1292.43 45.9363 1293.58 46.6643 1294.55 47.5284C1295.52 48.3925 1296.27 49.4105 1296.8 50.5824C1297.35 51.7543 1297.62 53.0978 1297.64 54.6129C1297.62 56.8383 1297.06 58.7678 1295.93 60.4013C1294.82 62.023 1293.21 63.2836 1291.1 64.1832C1289.01 65.071 1286.48 65.5149 1283.52 65.5149C1280.58 65.5149 1278.03 65.0651 1275.85 64.1655C1273.68 63.2659 1271.99 61.9342 1270.77 60.1705C1269.56 58.3949 1268.93 56.1991 1268.87 53.5831H1276.31C1276.39 54.8023 1276.74 55.8203 1277.36 56.6371C1277.99 57.442 1278.82 58.0516 1279.86 58.4659C1280.92 58.8684 1282.11 59.0696 1283.43 59.0696C1284.73 59.0696 1285.86 58.8802 1286.82 58.5014C1287.79 58.1226 1288.54 57.5959 1289.08 56.9212C1289.61 56.2464 1289.88 55.4711 1289.88 54.5952C1289.88 53.7784 1289.63 53.0919 1289.15 52.5355C1288.67 51.9792 1287.98 51.5057 1287.05 51.1151C1286.14 50.7244 1285.02 50.3693 1283.7 50.0497L1279.74 49.0554C1276.67 48.3097 1274.25 47.1437 1272.48 45.5575C1270.7 43.9714 1269.82 41.8348 1269.83 39.1477C1269.82 36.946 1270.4 35.0225 1271.59 33.3771C1272.78 31.7318 1274.42 30.4474 1276.51 29.5241C1278.59 28.6009 1280.96 28.1392 1283.61 28.1392C1286.31 28.1392 1288.66 28.6009 1290.68 29.5241C1292.7 30.4474 1294.27 31.7318 1295.4 33.3771C1296.52 35.0225 1297.1 36.9283 1297.14 39.0945H1289.77Z" fill="#00556E"/>
</g>
</g>
</g>
<path d="M969.161 67V30.6364H993.237V36.9751H976.849V45.6399H991.639V51.9787H976.849V67H969.161ZM1000.14 67H991.897L1004.45 30.6364H1014.36L1026.89 67H1018.65L1009.55 38.946H1009.26L1000.14 67ZM999.62 52.7067H1019.08V58.7081H999.62V52.7067ZM1031.27 67V30.6364H1045.62C1048.36 30.6364 1050.71 31.1276 1052.65 32.1101C1054.6 33.0807 1056.09 34.4598 1057.1 36.2472C1058.13 38.0227 1058.65 40.112 1058.65 42.5149C1058.65 44.9297 1058.13 47.0071 1057.09 48.7472C1056.04 50.4754 1054.54 51.8011 1052.56 52.7244C1050.59 53.6477 1048.21 54.1094 1045.42 54.1094H1035.82V47.9304H1044.18C1045.65 47.9304 1046.87 47.7292 1047.84 47.3267C1048.81 46.9242 1049.53 46.3205 1050 45.5156C1050.49 44.7107 1050.73 43.7105 1050.73 42.5149C1050.73 41.3075 1050.49 40.2895 1050 39.4609C1049.53 38.6323 1048.8 38.005 1047.82 37.5788C1046.85 37.1409 1045.62 36.9219 1044.14 36.9219H1038.96V67H1031.27ZM1050.91 50.4517L1059.95 67H1051.46L1042.62 50.4517H1050.91ZM1064.08 30.6364H1073.56L1083.58 55.0682H1084L1094.02 30.6364H1103.5V67H1096.04V43.3317H1095.74L1086.33 66.8224H1081.25L1071.84 43.2429H1071.54V67H1064.08V30.6364ZM1145.52 42.3906C1145.27 41.5265 1144.92 40.763 1144.47 40.1001C1144.02 39.4254 1143.47 38.8572 1142.82 38.3956C1142.18 37.9221 1141.45 37.5611 1140.62 37.3125C1139.8 37.0639 1138.9 36.9396 1137.9 36.9396C1136.04 36.9396 1134.41 37.4013 1133 38.3246C1131.6 39.2479 1130.52 40.5914 1129.73 42.3551C1128.95 44.107 1128.56 46.2495 1128.56 48.7827C1128.56 51.3158 1128.95 53.4702 1129.72 55.2457C1130.49 57.0213 1131.57 58.3767 1132.98 59.3118C1134.39 60.2351 1136.06 60.6967 1137.97 60.6967C1139.71 60.6967 1141.2 60.389 1142.43 59.7734C1143.67 59.1461 1144.62 58.2642 1145.27 57.1278C1145.93 55.9915 1146.26 54.648 1146.26 53.0973L1147.83 53.3281H1138.45V47.5398H1153.67V52.1207C1153.67 55.3168 1152.99 58.063 1151.64 60.3594C1150.3 62.6439 1148.44 64.4077 1146.07 65.6506C1143.7 66.8816 1140.99 67.4972 1137.94 67.4972C1134.53 67.4972 1131.53 66.7455 1128.95 65.2422C1126.37 63.727 1124.36 61.5786 1122.92 58.7969C1121.48 56.0033 1120.77 52.6889 1120.77 48.8537C1120.77 45.9062 1121.19 43.2784 1122.05 40.9702C1122.91 38.6501 1124.12 36.6851 1125.67 35.0753C1127.22 33.4654 1129.02 32.2403 1131.08 31.3999C1133.14 30.5594 1135.37 30.1392 1137.78 30.1392C1139.84 30.1392 1141.75 30.4411 1143.53 31.0447C1145.31 31.6366 1146.88 32.477 1148.25 33.5661C1149.64 34.6551 1150.77 35.9512 1151.64 37.4545C1152.52 38.946 1153.08 40.5914 1153.33 42.3906H1145.52ZM1192.86 48.8182C1192.86 52.7836 1192.11 56.1572 1190.6 58.9389C1189.11 61.7206 1187.08 63.8454 1184.5 65.3132C1181.93 66.7692 1179.04 67.4972 1175.83 67.4972C1172.6 67.4972 1169.7 66.7633 1167.13 65.2955C1164.56 63.8277 1162.53 61.7029 1161.04 58.9212C1159.55 56.1394 1158.8 52.7718 1158.8 48.8182C1158.8 44.8527 1159.55 41.4792 1161.04 38.6974C1162.53 35.9157 1164.56 33.7969 1167.13 32.3409C1169.7 30.8731 1172.6 30.1392 1175.83 30.1392C1179.04 30.1392 1181.93 30.8731 1184.5 32.3409C1187.08 33.7969 1189.11 35.9157 1190.6 38.6974C1192.11 41.4792 1192.86 44.8527 1192.86 48.8182ZM1185.07 48.8182C1185.07 46.2495 1184.68 44.0833 1183.91 42.3196C1183.15 40.5559 1182.08 39.2183 1180.7 38.3068C1179.31 37.3954 1177.69 36.9396 1175.83 36.9396C1173.97 36.9396 1172.35 37.3954 1170.97 38.3068C1169.58 39.2183 1168.51 40.5559 1167.74 42.3196C1166.98 44.0833 1166.6 46.2495 1166.6 48.8182C1166.6 51.3868 1166.98 53.553 1167.74 55.3168C1168.51 57.0805 1169.58 58.4181 1170.97 59.3295C1172.35 60.241 1173.97 60.6967 1175.83 60.6967C1177.69 60.6967 1179.31 60.241 1180.7 59.3295C1182.08 58.4181 1183.15 57.0805 1183.91 55.3168C1184.68 53.553 1185.07 51.3868 1185.07 48.8182ZM1231.97 48.8182C1231.97 52.7836 1231.22 56.1572 1229.72 58.9389C1228.22 61.7206 1226.19 63.8454 1223.61 65.3132C1221.04 66.7692 1218.15 67.4972 1214.94 67.4972C1211.71 67.4972 1208.81 66.7633 1206.24 65.2955C1203.67 63.8277 1201.64 61.7029 1200.15 58.9212C1198.66 56.1394 1197.92 52.7718 1197.92 48.8182C1197.92 44.8527 1198.66 41.4792 1200.15 38.6974C1201.64 35.9157 1203.67 33.7969 1206.24 32.3409C1208.81 30.8731 1211.71 30.1392 1214.94 30.1392C1218.15 30.1392 1221.04 30.8731 1223.61 32.3409C1226.19 33.7969 1228.22 35.9157 1229.72 38.6974C1231.22 41.4792 1231.97 44.8527 1231.97 48.8182ZM1224.18 48.8182C1224.18 46.2495 1223.79 44.0833 1223.02 42.3196C1222.26 40.5559 1221.19 39.2183 1219.81 38.3068C1218.42 37.3954 1216.8 36.9396 1214.94 36.9396C1213.09 36.9396 1211.46 37.3954 1210.08 38.3068C1208.69 39.2183 1207.62 40.5559 1206.85 42.3196C1206.09 44.0833 1205.71 46.2495 1205.71 48.8182C1205.71 51.3868 1206.09 53.553 1206.85 55.3168C1207.62 57.0805 1208.69 58.4181 1210.08 59.3295C1211.46 60.241 1213.09 60.6967 1214.94 60.6967C1216.8 60.6967 1218.42 60.241 1219.81 59.3295C1221.19 58.4181 1222.26 57.0805 1223.02 55.3168C1223.79 53.553 1224.18 51.3868 1224.18 48.8182ZM1250.56 67H1237.67V30.6364H1250.66C1254.32 30.6364 1257.47 31.3643 1260.11 32.8203C1262.75 34.2644 1264.78 36.3419 1266.2 39.0526C1267.63 41.7633 1268.35 45.0066 1268.35 48.7827C1268.35 52.5705 1267.63 55.8258 1266.2 58.5483C1264.78 61.2708 1262.74 63.3601 1260.07 64.8161C1257.42 66.272 1254.25 67 1250.56 67ZM1245.35 60.4126H1250.24C1252.51 60.4126 1254.42 60.0102 1255.97 59.2053C1257.53 58.3885 1258.71 57.1278 1259.49 55.4233C1260.28 53.7069 1260.68 51.4934 1260.68 48.7827C1260.68 46.0956 1260.28 43.8999 1259.49 42.1953C1258.71 40.4908 1257.54 39.236 1255.99 38.4311C1254.44 37.6262 1252.53 37.2237 1250.26 37.2237H1245.35V60.4126ZM1293.77 41.0945C1293.63 39.6622 1293.02 38.5495 1291.94 37.7564C1290.86 36.9633 1289.4 36.5668 1287.56 36.5668C1286.3 36.5668 1285.24 36.7443 1284.38 37.0994C1283.51 37.4427 1282.85 37.9221 1282.39 38.5376C1281.94 39.1532 1281.71 39.8516 1281.71 40.6328C1281.69 41.2839 1281.83 41.852 1282.12 42.3374C1282.43 42.8227 1282.85 43.2429 1283.38 43.598C1283.92 43.9413 1284.53 44.2431 1285.23 44.5036C1285.93 44.7521 1286.67 44.9652 1287.47 45.1428L1290.73 45.924C1292.32 46.2791 1293.78 46.7526 1295.1 47.3445C1296.43 47.9363 1297.58 48.6643 1298.55 49.5284C1299.52 50.3925 1300.27 51.4105 1300.8 52.5824C1301.35 53.7543 1301.62 55.0978 1301.64 56.6129C1301.62 58.8383 1301.06 60.7678 1299.93 62.4013C1298.82 64.023 1297.21 65.2836 1295.1 66.1832C1293.01 67.071 1290.48 67.5149 1287.52 67.5149C1284.58 67.5149 1282.03 67.0651 1279.85 66.1655C1277.68 65.2659 1275.99 63.9342 1274.77 62.1705C1273.56 60.3949 1272.93 58.1991 1272.87 55.5831H1280.31C1280.39 56.8023 1280.74 57.8203 1281.36 58.6371C1281.99 59.442 1282.82 60.0516 1283.86 60.4659C1284.92 60.8684 1286.11 61.0696 1287.43 61.0696C1288.73 61.0696 1289.86 60.8802 1290.82 60.5014C1291.79 60.1226 1292.54 59.5959 1293.08 58.9212C1293.61 58.2464 1293.88 57.4711 1293.88 56.5952C1293.88 55.7784 1293.63 55.0919 1293.15 54.5355C1292.67 53.9792 1291.98 53.5057 1291.05 53.1151C1290.14 52.7244 1289.02 52.3693 1287.7 52.0497L1283.74 51.0554C1280.67 50.3097 1278.25 49.1437 1276.48 47.5575C1274.7 45.9714 1273.82 43.8348 1273.83 41.1477C1273.82 38.946 1274.4 37.0225 1275.59 35.3771C1276.78 33.7318 1278.42 32.4474 1280.51 31.5241C1282.59 30.6009 1284.96 30.1392 1287.61 30.1392C1290.31 30.1392 1292.66 30.6009 1294.68 31.5241C1296.7 32.4474 1298.27 33.7318 1299.4 35.3771C1300.52 37.0225 1301.1 38.9283 1301.14 41.0945H1293.77Z" fill="white"/>
<mask id="mask32_0_1" style="mask-type:luminance" maskUnits="userSpaceOnUse" x="1" y="-201" width="1387" height="667">
<path d="M1 -201H1387.67V465.667H1V-201Z" fill="white"/>
</mask>
<g mask="url(#mask32_0_1)">
<mask id="mask33_0_1" style="mask-type:luminance" maskUnits="userSpaceOnUse" x="910" y="243" width="397" height="32">
<path d="M910.672 243.041H1306.04V274.835H910.672V243.041Z" fill="white"/>
</mask>
<g mask="url(#mask33_0_1)">
<g opacity="0.770004">
<path d="M923.579 245.315H927.452V257.211C927.452 258.547 927.133 259.716 926.495 260.718C925.863 261.719 924.977 262.501 923.839 263.061C922.7 263.616 921.373 263.893 919.858 263.893C918.338 263.893 917.008 263.616 915.869 263.061C914.73 262.501 913.844 261.719 913.212 260.718C912.58 259.716 912.264 258.547 912.264 257.211V245.315H916.137V256.88C916.137 257.578 916.289 258.198 916.593 258.741C916.903 259.283 917.339 259.71 917.899 260.02C918.46 260.33 919.113 260.485 919.858 260.485C920.61 260.485 921.262 260.33 921.817 260.02C922.378 259.71 922.81 259.283 923.114 258.741C923.424 258.198 923.579 257.578 923.579 256.88V245.315ZM930.639 263.634V245.315H937.866C939.255 245.315 940.439 245.58 941.417 246.111C942.395 246.636 943.14 247.366 943.653 248.302C944.172 249.233 944.431 250.306 944.431 251.523C944.431 252.739 944.169 253.812 943.644 254.743C943.119 255.673 942.359 256.397 941.363 256.916C940.373 257.435 939.175 257.694 937.768 257.694H933.161V254.591H937.141C937.887 254.591 938.501 254.462 938.984 254.206C939.473 253.944 939.837 253.583 940.075 253.124C940.32 252.658 940.442 252.125 940.442 251.523C940.442 250.914 940.32 250.384 940.075 249.93C939.837 249.471 939.473 249.116 938.984 248.866C938.495 248.61 937.875 248.481 937.124 248.481H934.512V263.634H930.639ZM952.079 248.508V245.315H967.124V248.508H961.516V263.634H957.687V248.508H952.079ZM985.599 254.474C985.599 256.472 985.22 258.171 984.463 259.573C983.712 260.974 982.686 262.044 981.386 262.784C980.092 263.517 978.637 263.884 977.021 263.884C975.393 263.884 973.932 263.514 972.638 262.775C971.344 262.035 970.322 260.965 969.57 259.564C968.819 258.162 968.443 256.466 968.443 254.474C968.443 252.477 968.819 250.777 969.57 249.376C970.322 247.974 971.344 246.907 972.638 246.174C973.932 245.434 975.393 245.064 977.021 245.064C978.637 245.064 980.092 245.434 981.386 246.174C982.686 246.907 983.712 247.974 984.463 249.376C985.22 250.777 985.599 252.477 985.599 254.474ZM981.672 254.474C981.672 253.18 981.479 252.089 981.091 251.2C980.709 250.312 980.17 249.638 979.472 249.179C978.774 248.72 977.957 248.49 977.021 248.49C976.085 248.49 975.268 248.72 974.57 249.179C973.873 249.638 973.33 250.312 972.942 251.2C972.561 252.089 972.37 253.18 972.37 254.474C972.37 255.768 972.561 256.859 972.942 257.748C973.33 258.636 973.873 259.31 974.57 259.769C975.268 260.229 976.085 260.458 977.021 260.458C977.957 260.458 978.774 260.229 979.472 259.769C980.17 259.31 980.709 258.636 981.091 257.748C981.479 256.859 981.672 255.768 981.672 254.474ZM994.19 263.634V260.843L1000.71 254.805C1001.27 254.269 1001.73 253.785 1002.11 253.356C1002.49 252.927 1002.78 252.506 1002.97 252.095C1003.17 251.678 1003.27 251.227 1003.27 250.744C1003.27 250.208 1003.15 249.745 1002.9 249.358C1002.66 248.964 1002.32 248.663 1001.9 248.454C1001.48 248.24 1001 248.132 1000.46 248.132C999.9 248.132 999.411 248.246 998.994 248.472C998.576 248.699 998.254 249.024 998.028 249.447C997.801 249.871 997.688 250.375 997.688 250.959H994.012C994.012 249.76 994.283 248.72 994.826 247.837C995.368 246.955 996.128 246.272 997.106 245.789C998.084 245.306 999.211 245.064 1000.49 245.064C1001.8 245.064 1002.94 245.297 1003.91 245.762C1004.89 246.221 1005.65 246.859 1006.19 247.676C1006.74 248.493 1007.01 249.429 1007.01 250.485C1007.01 251.177 1006.87 251.859 1006.6 252.533C1006.33 253.207 1005.85 253.955 1005.16 254.778C1004.46 255.595 1003.49 256.576 1002.23 257.721L999.557 260.342V260.467H1007.25V263.634H994.19ZM1017.24 264.036C1015.7 264.03 1014.38 263.651 1013.27 262.9C1012.16 262.149 1011.31 261.06 1010.72 259.635C1010.13 258.21 1009.84 256.496 1009.84 254.492C1009.84 252.494 1010.14 250.792 1010.73 249.385C1011.32 247.977 1012.17 246.907 1013.28 246.174C1014.39 245.434 1015.71 245.064 1017.24 245.064C1018.77 245.064 1020.09 245.434 1021.19 246.174C1022.3 246.913 1023.15 247.986 1023.75 249.394C1024.35 250.795 1024.64 252.494 1024.64 254.492C1024.64 256.502 1024.34 258.219 1023.74 259.644C1023.15 261.069 1022.3 262.158 1021.2 262.909C1020.1 263.66 1018.78 264.036 1017.24 264.036ZM1017.24 260.825C1018.29 260.825 1019.13 260.297 1019.75 259.242C1020.38 258.186 1020.69 256.603 1020.68 254.492C1020.68 253.103 1020.54 251.946 1020.25 251.022C1019.97 250.097 1019.57 249.403 1019.05 248.937C1018.54 248.472 1017.94 248.24 1017.24 248.24C1016.2 248.24 1015.36 248.762 1014.73 249.805C1014.11 250.849 1013.79 252.411 1013.79 254.492C1013.79 255.899 1013.93 257.074 1014.21 258.016C1014.49 258.953 1014.9 259.656 1015.41 260.127C1015.93 260.592 1016.54 260.825 1017.24 260.825ZM1037.42 260.199V259.233C1037.42 258.499 1037.58 257.825 1037.89 257.211C1038.21 256.591 1038.66 256.096 1039.26 255.726C1039.86 255.351 1040.59 255.163 1041.46 255.163C1042.34 255.163 1043.07 255.348 1043.67 255.718C1044.27 256.087 1044.72 256.582 1045.03 257.202C1045.34 257.817 1045.49 258.493 1045.49 259.233V260.199C1045.49 260.932 1045.34 261.609 1045.03 262.229C1044.72 262.843 1044.26 263.335 1043.66 263.705C1043.06 264.081 1042.32 264.269 1041.46 264.269C1040.58 264.269 1039.85 264.081 1039.25 263.705C1038.65 263.335 1038.2 262.843 1037.89 262.229C1037.58 261.609 1037.42 260.932 1037.42 260.199ZM1040.03 259.233V260.199C1040.03 260.622 1040.13 261.022 1040.33 261.397C1040.54 261.773 1040.92 261.961 1041.46 261.961C1042 261.961 1042.37 261.776 1042.57 261.406C1042.77 261.037 1042.87 260.634 1042.87 260.199V259.233C1042.87 258.797 1042.78 258.392 1042.59 258.016C1042.39 257.641 1042.02 257.453 1041.46 257.453C1040.92 257.453 1040.55 257.641 1040.34 258.016C1040.13 258.392 1040.03 258.797 1040.03 259.233ZM1028.02 249.716V248.75C1028.02 248.01 1028.18 247.333 1028.5 246.719C1028.81 246.099 1029.27 245.604 1029.87 245.234C1030.47 244.865 1031.2 244.68 1032.05 244.68C1032.93 244.68 1033.67 244.865 1034.27 245.234C1034.86 245.604 1035.32 246.099 1035.63 246.719C1035.94 247.333 1036.09 248.01 1036.09 248.75V249.716C1036.09 250.455 1035.93 251.132 1035.62 251.746C1035.31 252.36 1034.85 252.852 1034.25 253.222C1033.65 253.586 1032.92 253.768 1032.05 253.768C1031.18 253.768 1030.44 253.583 1029.84 253.213C1029.24 252.837 1028.79 252.345 1028.48 251.737C1028.18 251.123 1028.02 250.449 1028.02 249.716ZM1030.64 248.75V249.716C1030.64 250.151 1030.75 250.553 1030.95 250.923C1031.16 251.293 1031.52 251.478 1032.05 251.478C1032.6 251.478 1032.97 251.293 1033.17 250.923C1033.37 250.553 1033.47 250.151 1033.47 249.716V248.75C1033.47 248.314 1033.38 247.909 1033.18 247.533C1032.99 247.158 1032.62 246.97 1032.05 246.97C1031.52 246.97 1031.15 247.16 1030.95 247.542C1030.75 247.924 1030.64 248.326 1030.64 248.75ZM1029.2 263.634L1041.8 245.315H1044.14L1031.55 263.634H1029.2ZM1071.81 254.474C1071.81 256.472 1071.44 258.171 1070.68 259.573C1069.93 260.974 1068.9 262.044 1067.6 262.784C1066.31 263.517 1064.85 263.884 1063.24 263.884C1061.61 263.884 1060.15 263.514 1058.85 262.775C1057.56 262.035 1056.54 260.965 1055.79 259.564C1055.03 258.162 1054.66 256.466 1054.66 254.474C1054.66 252.477 1055.03 250.777 1055.79 249.376C1056.54 247.974 1057.56 246.907 1058.85 246.174C1060.15 245.434 1061.61 245.064 1063.24 245.064C1064.85 245.064 1066.31 245.434 1067.6 246.174C1068.9 246.907 1069.93 247.974 1070.68 249.376C1071.44 250.777 1071.81 252.477 1071.81 254.474ZM1067.89 254.474C1067.89 253.18 1067.69 252.089 1067.31 251.2C1066.92 250.312 1066.38 249.638 1065.69 249.179C1064.99 248.72 1064.17 248.49 1063.24 248.49C1062.3 248.49 1061.48 248.72 1060.79 249.179C1060.09 249.638 1059.55 250.312 1059.16 251.2C1058.78 252.089 1058.59 253.18 1058.59 254.474C1058.59 255.768 1058.78 256.859 1059.16 257.748C1059.55 258.636 1060.09 259.31 1060.79 259.769C1061.48 260.229 1062.3 260.458 1063.24 260.458C1064.17 260.458 1064.99 260.229 1065.69 259.769C1066.38 259.31 1066.92 258.636 1067.31 257.748C1067.69 256.859 1067.89 255.768 1067.89 254.474ZM1074.68 263.634V245.315H1086.81V248.508H1078.56V252.873H1086.01V256.066H1078.56V263.634H1074.68ZM1089.42 263.634V245.315H1101.55V248.508H1093.29V252.873H1100.74V256.066H1093.29V263.634H1089.42ZM1119.92 250.583C1119.85 249.862 1119.54 249.301 1119 248.902C1118.45 248.502 1117.72 248.302 1116.79 248.302C1116.16 248.302 1115.62 248.392 1115.19 248.571C1114.75 248.744 1114.42 248.985 1114.19 249.295C1113.96 249.605 1113.85 249.957 1113.85 250.351C1113.83 250.679 1113.9 250.965 1114.05 251.209C1114.21 251.454 1114.42 251.666 1114.69 251.845C1114.95 252.017 1115.26 252.169 1115.62 252.301C1115.97 252.426 1116.34 252.533 1116.74 252.623L1118.39 253.016C1119.19 253.195 1119.92 253.434 1120.59 253.732C1121.26 254.03 1121.84 254.397 1122.32 254.832C1122.81 255.267 1123.19 255.78 1123.46 256.371C1123.74 256.961 1123.88 257.638 1123.88 258.401C1123.88 259.522 1123.59 260.494 1123.02 261.317C1122.46 262.134 1121.65 262.769 1120.59 263.222C1119.53 263.669 1118.26 263.893 1116.77 263.893C1115.29 263.893 1114 263.666 1112.91 263.213C1111.81 262.76 1110.96 262.089 1110.35 261.201C1109.74 260.306 1109.42 259.2 1109.39 257.882H1113.14C1113.18 258.496 1113.36 259.009 1113.67 259.421C1113.98 259.826 1114.4 260.133 1114.93 260.342C1115.46 260.545 1116.06 260.646 1116.73 260.646C1117.38 260.646 1117.95 260.551 1118.43 260.36C1118.92 260.169 1119.3 259.904 1119.57 259.564C1119.84 259.224 1119.97 258.833 1119.97 258.392C1119.97 257.981 1119.85 257.635 1119.61 257.354C1119.37 257.074 1119.02 256.836 1118.55 256.639C1118.09 256.442 1117.53 256.263 1116.86 256.102L1114.86 255.601C1113.32 255.226 1112.1 254.638 1111.21 253.839C1110.31 253.04 1109.87 251.964 1109.87 250.61C1109.87 249.501 1110.16 248.532 1110.76 247.703C1111.36 246.874 1112.19 246.227 1113.24 245.762C1114.29 245.297 1115.48 245.064 1116.81 245.064C1118.17 245.064 1119.36 245.297 1120.37 245.762C1121.39 246.227 1122.19 246.874 1122.75 247.703C1123.32 248.532 1123.61 249.492 1123.63 250.583H1119.92ZM1126.49 263.634V245.315H1133.71C1135.1 245.315 1136.29 245.58 1137.26 246.111C1138.24 246.636 1138.99 247.366 1139.5 248.302C1140.02 249.233 1140.28 250.306 1140.28 251.523C1140.28 252.739 1140.02 253.812 1139.49 254.743C1138.97 255.673 1138.21 256.397 1137.21 256.916C1136.22 257.435 1135.02 257.694 1133.62 257.694H1129.01V254.591H1132.99C1133.73 254.591 1134.35 254.462 1134.83 254.206C1135.32 253.944 1135.68 253.583 1135.92 253.124C1136.17 252.658 1136.29 252.125 1136.29 251.523C1136.29 250.914 1136.17 250.384 1135.92 249.93C1135.68 249.471 1135.32 249.116 1134.83 248.866C1134.34 248.61 1133.72 248.481 1132.97 248.481H1130.36V263.634H1126.49ZM1142.79 263.634V245.315H1155.14V248.508H1146.67V252.873H1154.5V256.066H1146.67V260.44H1155.17V263.634H1142.79ZM1174.38 251.728H1170.46C1170.39 251.221 1170.25 250.771 1170.02 250.378C1169.8 249.978 1169.52 249.638 1169.17 249.358C1168.83 249.078 1168.43 248.863 1167.98 248.714C1167.53 248.565 1167.04 248.49 1166.52 248.49C1165.57 248.49 1164.74 248.726 1164.04 249.197C1163.34 249.662 1162.79 250.342 1162.4 251.236C1162.02 252.125 1161.82 253.204 1161.82 254.474C1161.82 255.78 1162.02 256.877 1162.4 257.766C1162.8 258.654 1163.35 259.325 1164.05 259.778C1164.75 260.232 1165.57 260.458 1166.49 260.458C1167.01 260.458 1167.49 260.39 1167.93 260.252C1168.38 260.115 1168.78 259.916 1169.12 259.653C1169.47 259.385 1169.75 259.06 1169.98 258.678C1170.21 258.297 1170.37 257.861 1170.46 257.372L1174.38 257.39C1174.28 258.231 1174.03 259.042 1173.62 259.823C1173.22 260.598 1172.68 261.293 1172 261.907C1171.33 262.515 1170.52 262.998 1169.59 263.356C1168.66 263.708 1167.6 263.884 1166.43 263.884C1164.79 263.884 1163.33 263.514 1162.05 262.775C1160.76 262.035 1159.75 260.965 1159 259.564C1158.27 258.162 1157.9 256.466 1157.9 254.474C1157.9 252.477 1158.27 250.777 1159.02 249.376C1159.77 247.974 1160.79 246.907 1162.08 246.174C1163.37 245.434 1164.82 245.064 1166.43 245.064C1167.49 245.064 1168.47 245.214 1169.38 245.512C1170.29 245.81 1171.1 246.245 1171.8 246.818C1172.51 247.384 1173.08 248.079 1173.52 248.902C1173.97 249.725 1174.26 250.667 1174.38 251.728ZM1181.03 245.315V263.634H1177.16V245.315H1181.03ZM1187.37 263.634H1183.22L1189.55 245.315H1194.54L1200.85 263.634H1196.7L1192.12 249.501H1191.97L1187.37 263.634ZM1187.12 256.433H1196.92V259.456H1187.12V256.433ZM1203.06 263.634V245.315H1206.93V260.44H1214.79V263.634H1203.06ZM1240.01 254.474C1240.01 256.472 1239.64 258.171 1238.88 259.573C1238.13 260.974 1237.1 262.044 1235.8 262.784C1234.51 263.517 1233.05 263.884 1231.44 263.884C1229.81 263.884 1228.35 263.514 1227.05 262.775C1225.76 262.035 1224.74 260.965 1223.99 259.564C1223.23 258.162 1222.86 256.466 1222.86 254.474C1222.86 252.477 1223.23 250.777 1223.99 249.376C1224.74 247.974 1225.76 246.907 1227.05 246.174C1228.35 245.434 1229.81 245.064 1231.44 245.064C1233.05 245.064 1234.51 245.434 1235.8 246.174C1237.1 246.907 1238.13 247.974 1238.88 249.376C1239.64 250.777 1240.01 252.477 1240.01 254.474ZM1236.09 254.474C1236.09 253.18 1235.89 252.089 1235.51 251.2C1235.12 250.312 1234.58 249.638 1233.89 249.179C1233.19 248.72 1232.37 248.49 1231.44 248.49C1230.5 248.49 1229.68 248.72 1228.99 249.179C1228.29 249.638 1227.74 250.312 1227.36 251.2C1226.98 252.089 1226.78 253.18 1226.78 254.474C1226.78 255.768 1226.98 256.859 1227.36 257.748C1227.74 258.636 1228.29 259.31 1228.99 259.769C1229.68 260.229 1230.5 260.458 1231.44 260.458C1232.37 260.458 1233.19 260.229 1233.89 259.769C1234.58 259.31 1235.12 258.636 1235.51 257.748C1235.89 256.859 1236.09 255.768 1236.09 254.474ZM1242.88 263.634V245.315H1255.01V248.508H1246.76V252.873H1254.21V256.066H1246.76V263.634H1242.88ZM1257.62 263.634V245.315H1269.75V248.508H1261.49V252.873H1268.94V256.066H1261.49V263.634H1257.62ZM1272.35 263.634V245.315H1284.69V248.508H1276.22V252.873H1284.06V256.066H1276.22V260.44H1284.73V263.634H1272.35ZM1287.77 263.634V245.315H1295C1296.38 245.315 1297.57 245.562 1298.54 246.057C1299.53 246.546 1300.28 247.241 1300.79 248.141C1301.31 249.036 1301.57 250.088 1301.57 251.299C1301.57 252.515 1301.3 253.562 1300.78 254.438C1300.25 255.309 1299.49 255.977 1298.5 256.442C1297.51 256.907 1296.31 257.14 1294.9 257.14H1290.06V254.027H1294.28C1295.02 254.027 1295.63 253.926 1296.12 253.723C1296.61 253.52 1296.97 253.216 1297.21 252.811C1297.46 252.405 1297.58 251.901 1297.58 251.299C1297.58 250.691 1297.46 250.178 1297.21 249.76C1296.97 249.343 1296.61 249.027 1296.11 248.812C1295.62 248.592 1295 248.481 1294.26 248.481H1291.65V263.634H1287.77ZM1297.67 255.297L1302.22 263.634H1297.94L1293.49 255.297H1297.67Z" fill="#00556E"/>
</g>
</g>
</g>
</g>
<defs>
<clipPath id="clip0_0_1">
<rect width="1386.67" height="666.667" fill="white" transform="translate(0 -201)"/>
</clipPath>
</defs>
</svg>
